<?xml version="1.0" encoding="UTF-8" standalone="no"?><!-- Generator: Adobe Illustrator 18.0.0, SVG Export Plug-In . SVG Version: 6.00 Build 0)  --><svg xmlns="http://www.w3.org/2000/svg" xmlns:xlink="http://www.w3.org/1999/xlink" contentScriptType="text/ecmascript" zoomAndPan="magnify" contentStyleType="text/css" id="图层_1" mapName="安徽省" mapType="省市地图" enable-background="new 0 0 1000 1000" version="1.1" xml:space="preserve" preserveAspectRatio="xMidYMid meet" viewBox="0 0 1000 1000" x="0px" y="0px">
<path name="芜湖市" fill="#D3D3D3" id="path0" d="M597.4,679.2C597.4,679.2,597.4,679.2,597.4,679.2  c2.9-2.2,2.4-2.3,3.4-4c0,0,0,0,0,0c1-1.8,6.6-5,8.8-6.4c0.8-0.5,1.4-0.7,2-0.7c1,0,1.9,0.4,3.8,0.6c0.2,0,0.4,0,0.5,0  c2.2,0,0-2.1-1.1-2.9c-1.3-0.9-2.6-2.4-0.9-3.3s2-2.5,2-4.5c0,0,0,0,0,0c0-1.1,0.6-1.2,1.4-1.2c0.2,0,0.3,0,0.5,0c0.5,0,1,0,1.5-0.3  c0,0,0,0,0,0c1.6-0.8,4.5-3.3,7.5-3.8c3-0.5,2.1,1.1,2.6,3.5c0,0,0,0,0,0c0.5,2.2,2.8,6.6,4.5,7.9c0.2,0.2,0.4,0.2,0.6,0.2  c1.3,0,1.9-3.3,3.2-4.6c0.8-0.8,0.9-1.9,0.8-3.1s-0.4-2.4-0.6-3.2c-0.1-0.4-0.1-0.9-0.1-1.3c0-1.1,0.2-2.2,0.2-3  c0-0.2,0-0.3-0.1-0.5c-0.3-1.1-0.6-1.6,1.5-3c2-1.4,1-2.8-0.8-4.3c-1.9-1.5,1.8-3.5,4.8-4.6c2.9-1.1,1.5-5.5,3.5-7.5  c0.6-0.6,1.3-0.8,1.9-0.8c1.5,0.1,3,1.4,4.2,2c1.9,1,3.6-2.9,6.4-5.9c2.8-3,0.6-4.9-0.4-6.6c-1-1.7,3-3.8,3.9-5.5  c0-0.1,0.1-0.2,0.1-0.4c-0.1-1.9-5.5-6-6.9-8.1c-1.5-2.3-0.9-3.9-2-5c-0.8-0.8-0.9-2.9-0.9-4.2c0-0.3,0-0.5,0-0.7  c-2,0.7-3.2,1.3-5.4,0.2c-2.5-1.3-3.5-3.1-3.5-5.9s0.1-3.5-2.8-6s-3.1-2.1-7,0.8c-3.9,2.9-3.8-3.3-5-9.5c-1.1-5.3-4.9-7.4-6-7.9  c-1.3,3.4-4.1,8.5-8.6,9.9c-4.6,1.5,2.4,4,3.4,5c1.1,1.1,3,12.1,2.9,14.1c-0.1,1.9-7,1-11.8,0.6c-4.8-0.3-11.5,5.5-12.1,6.5  c-0.6,1.1-5,3.4-10,7.4c-4.9,4-4.3,2.8-5.6,7.6c-0.1,0.4-0.3,0.8-0.4,1.1c0.3,2.1,1.6,9.5,5.6,13.6c4.9,4.9,6,7.3,9,7.3  s3.1,2,3.1,4.1c0,2,0.3,7-5.1,7.3c-5.4,0.4-5.9,1.1-7.1,2.6c-1.1,1.5-0.3,3-4.6,2.8c-4.3-0.3-4.6-0.5-4.6,1.5  c0.3,0.1,0.4,0.4,0.5,1.1c0.4,2.3,0.4,4.3,3.8,4.9c3.4,0.6,4.5,1.9,5.8,3.4s4.7,1.6,6,2.9s1.3,4.4-1.1,8.6c-0.8,1.4-1.5,2.9-2.2,4.3  c0.9-0.1,1.8-0.3,2.6-0.6C594.2,681.4,595.6,680.6,597.4,679.2z" stroke-miterlimit="10" stroke="#FFFFFF"/>
<path name="宣城市" fill="#D3D3D3" id="path1" d="M766.9,615.9c-2,0-5.6-1-8.4-3c-2.8-1.9-5.6-1.9-6.5-1.4  c-0.9,0.5-2.9,0.5-4.8-1.1c-1.8-1.6-2.9-1.4-4.9-0.9c-1.9,0.5-2-0.6-3.8-2.1c-1.6-1.5-2-3.1-1.3-4.6c0.8-1.5,0.9-5,0.3-7.1  c-0.6-2.1-2.8-1.8-3.5,0.9c-0.6,2.6-2.3,1.9-5.6,3c-3.4,1-7-2.6-11.9-4.5c-4.9-1.8-8.4,5.3-9.3,6.5c-0.7,1.3-13.4,2.9-18.2,1.4  c-4.9-1.4-6.8-0.8-10.9,1c-4.1,1.8-6-1.3-9.5-4.5s-5.5-3.5-6.1-5.1c-0.1-0.3-0.1-0.6-0.1-1.1c-1.1,0-5.7-0.1-8.1,0.8  c-0.4,0.1-0.8,0.3-1.1,0.4c0,0.2,0,0.4,0,0.7c0,1.2,0.1,3.3,0.9,4.2c1.3,1.1,0.5,2.8,2,5c1.4,2.1,6.9,6.1,6.9,8.1  c0,0.1,0,0.3-0.1,0.4c-0.8,1.7-4.8,3.8-3.9,5.5c1,1.8,3.1,3.6,0.4,6.6c-2.7,3-4.5,6.9-6.4,5.9c-1.3-0.7-2.8-2-4.2-2  c-0.7,0-1.3,0.2-1.9,0.8c-2,2-0.5,6.4-3.5,7.5c-2.9,1.1-6.5,3.1-4.8,4.6c1.8,1.5,2.9,2.9,0.8,4.3c-2,1.4-1.6,1.7-1.5,3  c0,0.2,0,0.3,0.1,0.5c0,0.9-0.2,1.9-0.2,3c0,0.4,0,0.9,0.1,1.3c0.2,0.8,0.5,2,0.6,3.2s-0.1,2.4-0.8,3.1c-1.3,1.3-1.9,4.7-3.2,4.6  c-0.2,0-0.4-0.1-0.6-0.2c-1.8-1.3-4-5.6-4.5-7.9c0,0,0,0,0,0c-0.5-2.2,0.2-3.9-2.6-3.5c-3,0.5-5.9,3-7.5,3.8c0,0,0,0,0,0  c-0.5,0.2-1,0.3-1.5,0.3c-0.2,0-0.4,0-0.5,0c-0.8,0-1.4,0.1-1.4,1.2c0,0,0,0,0,0c0,2-0.3,3.6-2,4.5s-0.4,2.4,0.9,3.3  c1.2,0.8,3.3,3,1.1,2.9c-0.1,0-0.3,0-0.5,0c-1.9-0.2-2.8-0.7-3.8-0.6c-0.6,0-1.2,0.2-2,0.7c-2.1,1.4-7.8,4.6-8.8,6.4c0,0,0,0,0,0  c-0.9,1.7-0.4,1.7-3.4,4c0,0,0,0,0,0c-1.8,1.3-3.2,2.2-4.5,2.7c-0.8,0.3-1.7,0.5-2.6,0.6c-1.5,2.9-3.1,5.3-5,5.9  c-2.8,0.9-4.9,0.6-6,3.8c-1,2.8-0.8,6.4-0.6,7.4c1.6,0.5,3.8,1.9,4.9,1.9c1.9,0.1,3.4-3.6,7.3-4.4c3.9-0.9,3.5,4.3,2.4,5.5  c-1.1,1.4-1.8,3.4-0.1,5.3c1.6,2,7.1-0.1,10.4-0.1s4,2.8,5.4,5.4c1.4,2.6,3.9,3,6.1,3c2.3,0,2.3,4,3.5,8.6c1.3,4.6-4.9,5.3-6.3,6.3  c-1.3,1-1.8,3.9-0.3,4.6c1.5,0.8,2.4,2.8,3.6,7.4c1.3,4.8,10,5.5,18.1,7.9c8.3,2.4,6.3,11.9,5.9,14.6c-0.3,2.8,2.3,3.4,5.1,3.4  c2.8,0,5-0.8,5.4-2.3c0.3-1.4,0.3-1.9,2-2.3c1.8-0.4,3.8-1.9,4.5-3.6c0.6-1.6,2.9-2,4.9-2.2c2-0.3,1.9-1.1,2.4-2.8  c0.5-1.6,4.4-5.5,5.7-6.4c1.4-0.9,1.1,0.9,3.4,2c2.2,1.1,3.4-1.5,4.1-3.3c0.6-1.4,2.9-3.9,3.6-4.6c0-1.3,3.6-3.5,6.4-5.5  c3.4-2.4,1.3-2.5-0.5-3.1c-1.8-0.5-3.9-5.3-3.8-7.6c0.1-2.4,2.9-6.9,6.1-9c3.3-2,5.9,1.6,10.5,3.6c4.6,1.9,5.3,1.9,6.9,0.1  s2-0.9,4.1,1.1c2,2,5.7,1.5,9.6,2.4c3.9,0.9,5.7-1.6,5.7-5.9c0-4.3,3.5-2.9,7.3-4.3s3.8,2.1,7.6,0.8c4-1.4,1.4-3.5-2.4-5.8  c-3.9-2.2-3.5-12.2-3.5-14.6c0-2.4-3.1-1.3-6.6-0.4c-3.6,0.9-3.9-2.6-3.9-5.6s0.4-2.9,0.1-5.3c-0.3-2.4,3.8-1.5,6.3-2s5.5-5.6,7.8-8  s3.8-1.4,4.6,2.6c0.9,4.1,2.6,1.5,6.6-2.1c4-3.8,1.3-8.6,1-11.1c-0.3-2.5,3.1-1.8,4.5-1.9c1.4-0.1,3.1-1,5.6-6.3s0-5.5-0.1-7.9  c-0.1-2.4,1.9-13.3,4-15.4c2-2,2.6-2.3,2.6-5.8c0-3.5,1.5-5,1.8-6.5C769.6,618.9,768.9,615.9,766.9,615.9z" stroke-miterlimit="10" stroke="#FFFFFF"/>
<path name="马鞍山市" fill="#D3D3D3" id="path2" d="M629.8,573.9c1.3,6.1,1.1,12.4,5,9.5s4.1-3.3,7-0.8  c2.9,2.5,2.8,3.1,2.8,6s0.9,4.6,3.5,5.9c2.5,1.3,3.8,0.4,6.5-0.6c2.4-0.8,6.9-0.8,8.1-0.8c0.3-1.9,2.4-4.6,7.9-6.6  c6.8-2.4,8.9-8.6,10-12.6c1-4.1-0.9-10.8-1.3-14.8c-0.4-4-0.1-4.6-1.1-5.9c-1-1.3-1.9-1.8-5.6,1.8c-3.8,3.6-2.4,0.1-2.4-2.1  s0.6-2.9-2.4-3.8c-3.1-0.9-1.9,0.6-4,3.6c-2,3-7.8,0.5-9.3-0.8c-1.4-1.3-0.5-4,3.2-6.5s-1.9-3.3-4.5-5.9c-2.5-2.6-3.1-1.4-7.4-0.1  c-4.4,1.3-6-1.1-6.5-4c-0.1-1-0.3-2-0.4-3.1c-1.4,1.4-7.1,7.1-8.8,8.5c-1.9,1.6-0.6,3.4-2.4,8.3c-1.6,4.8-2.8,13-3.9,16.4  c0,0.1-0.1,0.3-0.1,0.5C624.9,566.5,628.6,568.6,629.8,573.9z" stroke-miterlimit="10" stroke="#FFFFFF"/>
<path name="铜陵市" fill="#D3D3D3" id="path3" d="M582.6,656c4.4,0.3,3.4-1.3,4.6-2.8c1.1-1.5,1.8-2.3,7.1-2.6  c5.4-0.4,5.1-5.3,5.1-7.2c0-2-0.1-4.1-3.1-4.1s-4.1-2.4-9-7.3c-4.1-4.1-5.4-11.4-5.6-13.6c-1.6,4.3-5,6.6-7.8,7.4  c-3,0.9-4.6-1.5-5.6-3.9s-1.8-4.1-8.4-4.5c-6.5-0.4-8.4,15.6-9,17.8s0,7.4,0.1,10.9c0.1,2.6-0.4,6.6-1.9,10.4c0.8,0.6,3,2.4,3.6,5.6  c0.9,4.1,0.6,10.5,3.6,7.1s7.9-4.7,8.4-6.8c0.5-2,4.3-4.5,6.9-4.2c2.6,0.3,4,0.6,4.8,0.4c0.5-0.3,1.1-1.1,1.6-1  C578,655.5,578.4,655.8,582.6,656z" stroke-miterlimit="10" stroke="#FFFFFF"/>
<path name="池州市" fill="#D3D3D3" id="path4" d="M579.6,692.3c1.1-3.1,3.3-2.9,6-3.8s4.9-5.8,7.3-10.1  c2.4-4.3,2.4-7.4,1.1-8.6s-4.8-1.4-6-2.9s-2.4-2.6-5.8-3.4c-3.4-0.6-3.4-2.6-3.8-4.9s-1.4-0.4-2.1-0.1c-0.8,0.4-2.1-0.1-4.8-0.4  c-2.6-0.3-6.4,2.3-6.9,4.3s-5.4,3.4-8.4,6.8s-2.8-3-3.6-7.1c-0.8-3.3-2.9-5.1-3.6-5.6c-0.6,1.4-1.3,2.8-2.3,3.9  c-3.4,4.3-16.5,5-19.4,7.4c-2.9,2.4-5,7.4-7.4,8.8c-2.4,1.4-8.4-1.6-11.6-1.8c-3.3-0.1-9.9,5.6-12.4,5.9c-2.6,0.3-2.5,5-1.6,7.8  c0.9,2.8,0.9,7.6-2.6,13.5c-3.4,5.9-8.6,1.5-15.6-0.5c-7-2-15.6,7.3-18,9c-2.5,1.8-0.5,4.5-1.4,7.3c-0.9,2.8,1,4.8,2,7.9  c1.1,3.1-2.5,8-4.5,10.5c-2,2.5-4.7,10.5-6.7,12.9c-1.8,2.1-9.8,10.3-10.8,11.4c2.1,1.1,3.8,2.4,4.3,3.3c1.1,1.9,3.4,2.4,3.4,2.4  s2.6-1,2.6,1.1s1.9,2.4,3.1,1.9c1.1-0.5,1.8,1.5,3.9,3.8c2,2.1-3.3,10-4.5,11.1c-1.3,1.1-6.6,8.9-8.4,8.5c-1.7-0.4-4.7,0.1-5.1,1.5  c-0.4,1.4-2.2,4.8-5.3,6.6c-2.9,1.9-2.5,2.5-2.4,5.4c0.1,2.9-1.1,5.5-2,7.9c-0.9,2.4,2.5,5.7,5.5,7.1c2.9,1.4,4.1-0.1,5.9-1.4  c1.7-1.3,5.6,4.1,7.4,4.6c1.8,0.5,3.8-0.9,4-3.4c0.3-2.4,3.9-4,6.4-5.4c2.5-1.4,6.8-4,8.5-5.8c1.7-1.8,1.4-2,3.1-1.9  c1.6,0.1,3.4,0.3,5.4-0.4c2-0.6,6.9-3.1,6.5-5c-0.4-1.9-0.4-4.1,1.6-6.3c2-2.1-0.4-3.5-3.9-4.8c-3.5-1.3-1.8-3.3,0.6-5.4  s2-5.8,5.5-7.9c1.8-1.1,3.9-1.4,6-1.4c0-1,0.3-4.8,0.3-6.3c0-1.8,5.8-1.9,7.4-3c1.5-1.1,1.5-1.1,3.6-0.4c2,0.8,5.5,0.6,6.1-0.3  c0.6-0.7,1-1.3,3.4-1.3c2.4,0,2.2-1,3.3-2.4c1.1-1.5,1.1,0.1,3,0.6c1.9,0.6,2.4-1.6,3.4-2.8c1-1,0.9,0.9,5.6,1.3s2.9-5.6,2.3-6.9  c-0.5-1.3-2.1-3.5,1.4-3.4s0.4-1.4,2.5-2.5s3.9-0.3,5.6,1.8s3.3-0.3,4.1-0.6c1-0.4,2.1,0.4,3.3,1.5c1.1,1,2-2.9,2.3-4.5  s1.4-2,2.9-1.9c1.5,0.1,1.9-1,3.8-1.6c1.9-0.5,12.3-2.8,14.5-3.9s-0.4-2.6-1.6-4.1c-1.3-1.6,1.3-3.9,3.6-4.4c2.4-0.5,2.1-3,2.1-5.1  s1.4-2.3,4.6-1.8c3.3,0.4,0.3-2.5-1-3.4s-0.1-2.8,1.6-3.4c1.8-0.8-0.6-7.5-1-10.1s-0.3-6.8,1-8.3c0.5-0.6,1.3-0.5,2.3-0.3  C578.9,698.6,578.6,694.9,579.6,692.3z" stroke-miterlimit="10" stroke="#FFFFFF"/>
<path name="黄山市" fill="#D3D3D3" id="path5" d="M673.3,751.6c-2.3-1.1-2-2.9-3.4-2c-1.4,0.9-5.3,4.9-5.7,6.4  c-0.5,1.6-0.4,2.5-2.4,2.8c-2,0.3-4.3,0.5-4.9,2.3c-0.6,1.6-2.8,3.1-4.5,3.6c-1.8,0.4-1.8,0.9-2,2.3c-0.3,1.4-2.5,2.3-5.4,2.3  s-5.4-0.6-5.1-3.4c0.3-2.8,2.3-12.3-5.9-14.6c-8.3-2.4-17-3.3-18.1-7.9c-1.3-4.8-2.1-6.8-3.6-7.4c-1.5-0.8-1.1-3.6,0.3-4.6  c1.3-1,7.4-1.6,6.3-6.3c-1.3-4.6-1.3-8.6-3.5-8.6s-4.8-0.4-6.1-3s-2.1-5.4-5.4-5.4c-3.3,0-8.8,2.1-10.4,0.1s-1-4,0.1-5.3  c1.1-1.4,1.5-6.4-2.4-5.5s-5.5,4.6-7.3,4.4c-1.9-0.1-5.9-3.3-7.1-1.8s-1.4,5.6-1,8.3s2.8,9.4,1,10.1c-1.8,0.8-2.9,2.6-1.6,3.4  c1.3,0.9,4.3,3.8,1,3.4c-3.3-0.4-4.6-0.4-4.6,1.8s0.4,4.6-2.1,5.1c-2.4,0.5-4.9,2.9-3.6,4.4c1.3,1.6,3.8,3,1.6,4.1  c-2.2,1.1-12.6,3.4-14.5,3.9c-1.9,0.5-2.2,1.6-3.8,1.6c-1.5-0.1-2.6,0.3-2.9,1.9c-0.3,1.6-1,5.5-2.3,4.5c-1.1-1-2.3-1.9-3.3-1.5  s-2.4,2.6-4.1,0.6s-3.5-2.9-5.6-1.8s1,2.6-2.5,2.5s-1.9,2.1-1.4,3.4s2.5,7.2-2.3,6.9c-4.8-0.4-4.6-2.4-5.6-1.3  c-1,1.1-1.5,3.3-3.4,2.8c-1.9-0.6-1.9-2.1-3-0.6s-0.9,2.4-3.3,2.4s-2.8,0.5-3.4,1.3c-0.6,0.7-4.1,1-6.1,0.3c-2-0.7-2-0.6-3.6,0.4  c-1.5,1.1-7.4,1.3-7.4,3c0,1.5-0.3,5.3-0.3,6.3c2,0,4,0.4,5.4,0.8c2.8,0.6,1.5,3.9,1.5,7c0,3.3,0.6,4.3,3.8,4.9s3.6-3.4,5.8-3.6  c2.1-0.3,1.6,1.3,3.1,3.4c1.4,2,3.5-2,5.1-2c1.6,0,1,4.1,0.8,6.9c-0.3,2.9,1.9,4,4.1,5.1c2.1,1.1,1,7.3,1.9,9.5  c0.9,2.1,2.5,1.5,5.1,1.8c2.5,0.3,1.9,3.6,1,5.1c-0.9,1.5,0.1,2.5,1.3,2.5s2.4,0.3,4.4,2c1.9,1.8,2.9,1.6,4.9,0.1  c2-1.5,4-1.6,6.9-1.8c2.9-0.1,2.2,1.6,3.3,5.5c0.9,3.9,5.4,1.1,9.7-0.1s5.1,0,10.4,1.6c5.3,1.6,8.9-1.4,12.5-2.4  c3.6-1,11.1,2.9,16.9,6.6c5.8,3.9,0.3,9.3,2.4,11.4c2.1,2.1,7.6,4.1,8.8,1.9c1.1-2.1,2.3-1.6,7.5-1.4c5.3,0.3,3.8-3.4,3.8-6.4  c0-3.1,1.4-0.9,5.1-0.9s7.8,0.7,8.3-1.3c0.5-2,0.6-2,4.5-2.4c3.9-0.4,3.6-3.5,3.6-5.7c0-2.3,6.6-7.6,8.1-10.3  c1.5-2.5,3.2-4.7,6.3-3.1c3.1,1.6,6.9-5,11.5-9c4.6-4,0.4-7.4,1.3-11.9c0.9-4.5,7.5-6.9,9.6-7.6c2-0.8,3.4-5.3,2.9-7  c-0.4-1.8,1-4.1,3.6-4.1c2.6,0,2.4-2.9,2.9-7c0.5-4.2-1-7.4-2.8-9.5c-1.8-2,0.1-5,1.5-7.5c1.4-2.5-1.6-2.5-3.8-3.4  c-0.4-0.1-0.5-0.4-0.5-0.6c-0.7,0.8-3,3.3-3.6,4.6C676.6,750,675.5,752.8,673.3,751.6z" stroke-miterlimit="10" stroke="#FFFFFF"/>
<path name="毫州市" fill="#D3D3D3" id="path6" d="M447.1,323.9c0.4-3.4-2-4.6-4-5.8c-2-1-4.9-1.8-6.4-3.8  c-1.5-2-5.8-2.1-7.6-2.4s-7.1-0.3-11.3,1.1c-4.1,1.4-3-2.6-3.1-6.1c-0.1-3.5-1.3-5.8-1.3-8.6c0-2.9-0.5-4.6-2-7  c-1.5-2.5-1.5-7.9-1.6-11.4c-0.1-3.6-1.5-4-4-5.4c-2.1-1.3-3.8-4.1-4.2-4.9c-2.5,1.3-5.5,2.4-6.5,2.8c-1.8,0.6-4.5,0.6-5.4,2.3  c-1,1.6-3.4,3-6.5,3c-3,0-3.9,1-7.1,1.8c-3.3,0.9-12.8-9.6-12.8-13.5s-0.6-6.4-0.6-9.4s-3.8-1.1-5.8-1.4c-2.1-0.2-1.8-2.6-1-5  c0.8-2.3,0.4-3-0.6-6.4c-1-3.4-3-2.3-4.6-2.3c-1.8,0-3.8-0.9-5.5-2.8s-1.4-0.7-3.8,1s-5.5-6-7.4-7.4c-1.8-1.4-6.6-0.3-10.3,0.1  c-3.6,0.4-5.6,1.9-6.3,3c-0.6,1.1-3.5,2.4-5.4,3.1c-1.9,0.7-4.3,17-4.6,19s6.3,0,7.8-0.3c1.6-0.3,0.5,3.8-0.4,9.1  c-0.9,5.4-4.3,3.5-6.1,4.4c-1.9,0.9,1.8,5.8,2.8,7.4c1,1.6,0.5,4.6,0.3,7.3c-0.3,2.6,1.7,5.8,2.7,8.3c0.6,1.6,0.8,2.3-0.1,2.5  c0.5,2.3,3,10.8,6.9,10.6c4.4-0.3,7.6,1.5,8.8,3c1.1,1.5,5.4,4.8,7.4,4.9c2,0.1,2.3,2.6,3.5,4.5s2.5-0.6,2.1,4.6  c-0.4,5.4,1.8,6.6,0.9,11.8c-0.9,5.1-3,2.3-4.9,0.9s-5-3-5-0.4s2.1,5.6-0.1,7.5c-2.4,1.9-4.5,3.3-1.1,6.4c3.4,3.3,7,8.1,10.6,8.3  c3.6,0.1,11.8,1.8,15.5,3.6s8.5,7.5,3.8,9.3c-4.8,1.8,5.1,3.3,7.4,4c2.4,0.9,6.1,1.8,7.5,6.3c1.5,4.5,2.9,8.3,9.6,8.3  c6.6,0,11.3-1,11.3-4.8s-2.5-8.9,1.8-8.5c4.2,0.3,10.8,2.1,13.3,4.6s5.5,3,7.5,2.5c2-0.6,3.9-3.3,6.5-2.4c1.9,0.6,5,0.5,7.5,1.1  c0.6-1.3,2.5-5.3,3.3-6.8c0.9-1.8,2.8-0.6,4.7-2.3c1.9-1.6-0.1-3.6-2.9-4.4c-2.8-0.8-0.8-9.1,0.1-12.5s3.9-3.3,6.5-5.1  c2.8-1.9,0-8-1.3-10.4c-1.3-2.5-0.9-5-0.6-5.6c0-0.1,0.3-0.1,0.5-0.1C444.1,332.1,446.8,327.3,447.1,323.9z" stroke-miterlimit="10" stroke="#FFFFFF"/>
<path name="淮北市" fill="#D3D3D3" id="path7" d="M457.8,306c2-4.8,3.3-5.8,0.6-6.6c-2.6-1-5.4-2.9-5.4-6.1  s-0.4-7,2-7.3c2.4-0.3,5.1,0.5,5.1-2.4c0-2.8-1.8-4.3,0.1-6.6s1-7.3,1-8.6s-0.8-8.6,1.5-11.1c2.2-2.5,4.5-10.9,2.9-12.3  c-1.5-1.4-1.6-2.4-1.6-3.6c0-1.4-0.6-2.1-1.9-3c-1.3-0.8-2-1.6-1.5-3c0.5-1.4,0.8-1.6-1.1-1.6s-2.8-0.5-3.5-1.8  c-0.8-1.1-1.4-1.8-3-0.5c-1.8,1.3-6.1,3.6-7,5.8c-0.8,2.3,1.1,3-4.5,3.1c-5.5,0.1-16.1,0.1-17.1,0.1c0.3,0.6,0.5,1.3,0.6,1.6  c0.9,2.6,1.9,3,3.3,3.3c1.4,0.3-0.3,3.9,0.8,7.8c1,3.9-4,2.9-6.5,2.5s-4.2,0-6.4,2.3s-5.8,2.8-8.4,2.1c-2.6-0.6-3,4.3-2.9,6.4  c0,1-1.5,2-3.4,3c0.5,0.8,2.1,3.6,4.3,4.9c2.5,1.4,3.9,1.9,4,5.4c0.1,3.6,0.1,9,1.6,11.4c1.5,2.5,2,4.1,2,7s1.1,5.3,1.3,8.6  c0.1,3.5-0.9,7.4,3.1,6.1c4.1-1.4,9.4-1.4,11.3-1.1c1.9,0.2,6.1,0.4,7.6,2.4c1.5,2,4.4,2.8,6.4,3.8s4.4,2.4,4,5.8  c-0.4,3.4-3,8.1-1.8,11.1c1.5,0.1,6.4,1.5,7.9,1c1.5-0.5,3.3-1.4,6.3-1c-1-0.6-3.5-2.4-1.6-4.1c2.4-2.3,0.3-3.5,2.2-5.3  c2-1.7,4.5-6.4,2.5-8.1C460.5,316,455.8,310.8,457.8,306z" stroke-miterlimit="10" stroke="#FFFFFF"/>
<path name="宿州市" fill="#D3D3D3" id="path8" d="M601.5,278c2-2.1-4-1.3-6.8-2.3s-3.6-2.6-5.1-2.5s-6.8,2.8-9.5,2.6  c-2.6-0.1-3.9,0.8-5.3,2.3c-1.3,1.5-2,1.6-3.9,0.4s-4.5,0.1-6.8,0.1c-2.4,0-6.1,0.1-8.6,0.6s-2.9,0.4-5-0.5c-2.1-1-2.3-1.4-1-2.6  s1-3.3,1-5.8s0.6-6.4,1.4-10.3s-0.9-2.6-3.4-2.3c-2.5,0.5-2.9,0.4-3-2.4c-0.1-2.6-0.8-2.6-2.6-3.1s-1.5-2.5-1.6-5.9  c-0.1-3.5-0.6-2.9-2.6-4.6c-2-1.8-3.4-1.1-5.3,2s-4.4,0.8-5.3-2.6c-0.9-3.5-0.5-2.9-2.9-4.5c-2.4-1.6-7.4,2.6-10.4,3.4  c-3,0.6-5.5-4.9-6.3-7c-0.8-2.1-9.1,0.9-15.1,1.5c-6,0.5-7.9-1.8-10.6-4.9c-2.8-3.1-6-5.5-10.6-8.1c-4.8-2.6-1.6-3.3,1.4-6.9  c3.1-3.6-2.8-3.8-5.1-4.5s-3.1-6-3.8-11c-0.5-4.9-1.3-5.1-2-7.8c-0.8-2.6-6.1-1.5-9.5,0c-3.3,1.5-8-4-11.3-8.4  c-3.3-4.3-5-3.3-9.4-3.3s-9.2-4-12.2-5.9c-3-1.8-6.4-3.1-8.4-6c-2-2.9-5.5-9-9.4-10.8c-3.9-1.8-3.5,1.9-7.4,3.5  c-3.9,1.5-5.6,2.5-8,5.1c-2.4,2.5-3,2.5-6.4,1.1c-3.4-1.4-1.9,4.3-1.9,4.3s-0.5,1.8,0,3c0.6,1.3-1.5,2.4-3.1,4.3  c-1.8,1.8,2.9,10.1,5,12.3c2,2.3,4.4,5.3,9.6,6.9c5.3,1.8,7.1,6.3,7.3,9.3s2,0.2,7.4,0.1c5.4-0.2,9.1-2.2,11.8-2.6  c2.6-0.5,3.1,3.5,2.6,4.9c-0.5,1.4-1.3,3.3-0.8,6.6s-0.5,5.4-1.9,6.8s-1,6.9,1.5,9c2,1.8,4.5,6.6,5.8,9.8c0.9,0,11.6-0.1,17.1-0.1  c5.8-0.1,3.8-0.9,4.5-3.1c0.8-2.3,5.3-4.5,7-5.8c1.7-1.3,2.2-0.6,3,0.5c0.8,1.1,1.8,1.8,3.5,1.8c1.9,0,1.8,0.2,1.1,1.6  c-0.5,1.4,0.3,2.1,1.5,3c1.3,0.8,1.9,1.6,1.9,3s0.1,2.3,1.6,3.6s-0.8,9.8-2.9,12.3c-2.2,2.5-1.5,9.8-1.5,11.1s0.9,6.4-1,8.6  c-1.9,2.4-0.1,3.9-0.1,6.6c0,2.7-2.8,2-5.1,2.4c-2.4,0.3-2,3.9-2,7.3c0,3.3,2.8,5.1,5.4,6.1c2.6,1,1.4,2-0.6,6.6  c-2,4.8,2.6,10,4.7,11.6c2,1.8-0.5,6.4-2.5,8.1c-2,1.8,0.1,3-2.2,5.3c-1.9,1.9,0.6,3.6,1.6,4.1c0.6,0.1,1.4,0.3,2.1,0.5  c4.4,1.3,9.7,2,13.9,1.6c4.1-0.4,1.1-3.1,0-4.2c-1.1-1.1-2.6-1.9-1.1-3.9c1.5-2-1.5-1-0.6-3.9c0.9-2.9,2.8-1.8,5-1.3  c2.4,0.5,2.5-2.5,2.8-4.5c0.3-2,1.1-1.6,3-1.4c1.8,0.3,3.9-0.2,5.9-1.1s3.6-3.9,3.9-5.4c0.3-1.5-0.6-3,3.4-3.3c4-0.3,3.5,0,5,1.6  c1.5,1.6,5.6,3.8,6.6,3.9c1,0.1,2.4-0.4,3,1.4s2.9,7.5,4.8,10.8c1.9,3.4,5.6,3.4,10.9,4.6s7.5,0.3,11.6,0.1s3,1.3,3.6,3.1  c0.6,1.8,3,4.1,4.1,4.1c1.1,0,2.5,0,3.5,1.7c1,1.8,2.1,0.3,3-1.1c0.8-1.4,3-1.4,5.9-1.8c3-0.4,3.8-2.9,4.9-4.6  c1-1.6,10.8-1.3,12.5-1.1c-0.5-2.6,2.6-2.4,4.5-3.1c2-0.8,2.3-4.3,1.4-7.9c-0.9-3.8,1-4,2.2-7.5c1.3-3.6,6-2.1,7.8-0.9  c1.7,1.3,0-11.5,0-13.3s-1.5-3.9-0.3-4.3s3-2.3,4.6-5.4c1.7-3.3,0.8-5.6,0.5-8.3C597.5,277.8,599.5,280.1,601.5,278z" stroke-miterlimit="10" stroke="#FFFFFF"/>
<path name="蚌埠市" fill="#D3D3D3" id="path9" d="M564.3,332.3c-1.1,1.8-1.9,4.3-4.9,4.6s-5.1,0.4-5.9,1.8  s-1.9,3-3,1.1c-1-1.8-2.4-1.8-3.5-1.8s-3.5-2.4-4.1-4.1s0.5-3.3-3.6-3.1c-4.1,0.1-6.3,1.1-11.6-0.1c-5.3-1.3-9-1.3-10.9-4.6  c-1.9-3.4-4.1-9-4.7-10.8c-0.6-1.7-1.9-1.3-3-1.4c-1-0.1-5.1-2.1-6.6-3.9c-1.5-1.6-1-1.9-5-1.6c-4,0.2-3.1,1.6-3.4,3.3  c-0.3,1.5-1.8,4.5-3.9,5.4c-2,0.9-4.1,1.4-5.9,1.1c-1.8-0.3-2.8-0.6-3,1.4c-0.3,2-0.4,5-2.8,4.5c-2.4-0.5-4.1-1.5-5,1.3  c-0.9,2.9,2,1.9,0.6,3.9c-1.4,2,0,2.7,1.1,3.9c1.1,1.1,4.1,3.9,0,4.3c-4.1,0.4-9.5-0.4-13.9-1.6s-6.5-0.1-8.4,0.5  c-1.8,0.6-8.1-1.5-8.4-0.9c-0.3,0.6-0.6,3.3,0.6,5.6c1.3,2.5,4,8.5,1.3,10.4c-2.8,1.9-5.6,1.8-6.5,5.1c-0.9,3.4-2.9,11.7-0.1,12.5  c2.8,0.8,4.9,2.6,2.9,4.4c-1.9,1.6-3.9,0.5-4.8,2.3c-0.8,1.5-2.6,5.5-3.3,6.8c1.1,0.2,2.1,0.6,2.8,1.4c2.1,2.1,4.9,1.3,6.4,3.3  c1.5,1.9,18.3,16.9,21,17.3c2.8,0.4,6.3,4.8,7.9,6.4s1.8-4,5.8-3.4c3.1,0.5,6.6,2.3,7.1,4.4c0.5-0.2,6-2.6,7.1-5.2  c1.3-2.8,1.9-10.4,4.8-9.8c2.9,0.6,9.9,3.6,12.9,1.8c3.1-1.8,10.6-3.5,12-9.5s4.6-11.4,6.1-9.4c1.5,1.9,5.3,6.1,8.6,6.3  c3.3,0.1,8-0.4,8.5-4.9c0.4-4.5,3.6-5.3,5.4-6.9c1.9-1.6,2.5-4.6,5-3.5s10-0.4,10.1,0.8c0.1,1.1-0.8,5.9,2.8,4.9  c3.4-1,5.1-4.8,7.4-4.4c2.2,0.3,5.6,3.4,6,1.1c0.4-2.3,0-2.8-0.9-3.9s1.3-3,1.6-5c0.3-2,2.4-5.8,2.4-5.9c-0.3-0.3-0.5-0.6-1-1.5  c-1.3-2-2.3-1.9-4.5-2.6c-2.1-0.8-2.1-1.9-2.1-4.3c0-2.3-3.1-3.4-4.1-5.4s-0.8-3.6,1.8-5.8s1.9-3.6,0.9-6.8  c-0.1-0.3-0.1-0.4-0.1-0.6C575.1,331,565.4,330.6,564.3,332.3z" stroke-miterlimit="10" stroke="#FFFFFF"/>
<path name="滁州市" fill="#D3D3D3" id="path10" d="M717.6,420.3c-1-1.3-0.6-4.5-0.6-7.5s-1.6-10.3-2.5-14.9  c-0.9-4.6-4.3-2.3-6.6-1.9c-2.4,0.4-8.1-6.4-10.1-8c-1.9-1.6-2.1,0.1-2.5-4c-0.4-4.1-0.1-1.5-2.8-3.1c-2.6-1.5-7.3,1.3-8.3,1.3  c-1,0-2.1,0.8-3.5-1.7c-1.3-2.5-1-1.9-3.4-1.3c-2.2,0.6-5.4,10.8-5.6,13c-0.3,2.3-2.6,2.6-5.3,2c-2.5-0.6-3.4-0.3-2.3,2.3  c1,2.5-0.1,4.8,0.5,7.6c0.6,3-0.5,4.6-2,6.1c-1.5,1.5-5.8,1.5-7.8-1c-2-2.5-2.5-2-3.9-0.8c-1.3,1.3-4.6,1.9-6.4,2.3  c-1.8,0.4-9.8,0-12.6-1.6c-2.9-1.6-3.9,1.3-5.5,3.1c-1.6,1.8-4.4-1.4-5.5-5c-1.1-3.6-1.6-2.1-4.7-2c-3.1,0.1-2.5-2.9-2.5-6.9  c0-4.1-1.1-3.9-3.6-4.3c-2.4-0.4-2.4-1.3-2.3-6.5c0.1-5.3,1.9-3.5,5.5-5.4s1.6-2.9-2-3.3c-3.8-0.4-3.9-3-4.6-7  c-0.8-4.1-1.6-6.1-2.2-8.5c-0.6-2.3,0.1-3.3,0.6-5.1s-1.3-4.6-1.6-6.6c-0.4-2-1.4-3.9-2.5-5.1s-2.8,3.4-3.3,5.3  c-0.4,1.9-4.9,3.1-8.4,4.9c-2.3,1.1-2.9,1.5-3.4,1.3c-0.1,0.1-2.1,3.9-2.4,5.9s-2.5,3.9-1.6,5c0.9,1.1,1.3,1.5,0.9,3.9  c-0.4,2.3-3.8-0.8-6-1.1c-2.2-0.3-4,3.4-7.4,4.4s-2.6-3.8-2.8-4.9c-0.1-1.1-7.6,0.4-10.1-0.8c-2.5-1.1-3.3,1.9-5,3.5  c-1.9,1.6-5,2.4-5.4,6.9c-0.4,4.5-5.1,5-8.5,4.9c-3.3-0.1-7.1-4.4-8.6-6.3c-1.5-1.9-4.8,3.4-6.1,9.4s-8.9,7.8-12,9.5  c-3.1,1.8-10-1.3-12.9-1.7c-2.9-0.6-3.6,7-4.8,9.8c-1.1,2.6-6.6,5-7.1,5.3c0.1,0.6,0,1.4-0.5,2c-2.1,2.9-0.9,5.4,0,7.5  s2.9,4.9,2.9,7.6s2,4,1.1,7.3c-0.9,3.3-0.6,10.5,4.4,11.1c4.9,0.8,7.6-1.9,9.4-0.3c1.8,1.6,2.9,1.1,4.5,0.3c1.6-0.9,2.5-0.1,0.4,3.8  c-2,3.9-2.9,6.5,0.1,6.4c3-0.1,7-0.9,7.2,2.8c0.3,3.6-0.6,8.1-3.9,9.2c-3.4,1.1-1.6,2.4,1.1,4.3c2.8,1.9,9.4,9.3,13.5,7  c4-2.4,5.6-3.9,6.6-5.4c1-1.5,3-0.8,5.6-1.5c2.6-0.8,2.4-1.9,7.4-0.8c5.1,1.1,6,0.6,7.9,2.6c1.9,2,4.4,2,4.4,2s3.6-2.5,5.4-0.3  c1.8,2.1,2.5,8.4,1,12.6c-1.5,4.3,1.9,8.8-2.5,11.8c-3.1,2.3-2.5,4.1-3,5.1c0.9,0.9,5.6,5.9,5.6,7.5c0,1.8,1.9,2.1,3.8,2.1  s4.1,0.9,6.6,3.4s8.3,7.1,10.5,6.8c2.2-0.5,4.9-2.4,6.1-3.9c1.3-1.5,1.6-3.1,3.6-3.1s2.9,1.5,8.3-2.4c5.3-3.9,12.5-8.4,14.5-11.3  c1.5-2.1,4.1-4.6,5.4-5.6c1.4-2.8,9.4-7,11-8.4c1.9-1.6,2-5.9,2.4-7.5c0.4-1.6,2.4-3.1,6.1-3.1s4.6-0.5,7.8-1.5  c3.2-1,3.5-1.4,5.1-4.3c1.6-2.9,0-7.6,0.3-9.2c0.3-1.5,2.5-0.8,3.6-1.9c1-1.1,0.8-4.9,0.5-5.8c-0.3-0.9,0.9-2-1.1-3  c-2-0.9-0.4-7.1-0.1-9.5c0.3-2.3,0.1-2.4-1.9-1.7c-2,0.6-5.5-0.1-8.1-0.6c-2.6-0.5-1-3.1-0.3-5c0.7-1.9,0-4.1-2.3-5.6  s-2.5-3.3-1-4.3c1.5-1,7.4-0.1,9,0.5s4.1-1,5-2c0.9-1,1.9-2,3.5,0.4c1.5,2.4,2.5-0.4,4.4-1c1.8-0.6,2.9,3.8,4.5,2.5  c1.5-1.1,5.4,0.4,7.1,0.4c1.8,0,3.1,0.1,3.5,1.5c0.4,1.4,0.7,2.3,2.2,1.4c1.5-0.9,3.3,0.5,5.3,4.1c2,3.6,3.1,2.4,7.1,2  c4.1-0.4,4,3.1,5.7,7.3c1.8,4.3,2-1.4,4.9-3c2.9-1.6,4-4.3,4.3-8c0.3-3.9,1.8-3.5,5.6-5.5C721.1,427.5,718.8,421.6,717.6,420.3z" stroke-miterlimit="10" stroke="#FFFFFF"/>
<path name="巢湖市" fill="#D3D3D3" id="path11" d="M618.1,505.9c-2,2.9-9.3,7.3-14.5,11.3c-5.3,3.9-6.3,2.4-8.3,2.4  c-1.9,0-2.4,1.6-3.6,3.1s-3.9,3.5-6.1,3.9c-2.3,0.5-8-4.3-10.5-6.8s-4.8-3.4-6.6-3.4s-3.8-0.4-3.8-2.1c0-1.6-4.7-6.6-5.6-7.5  c-0.3,0.4-0.6,0.6-1.5,0.6c-3,0.1-7.9,0.9-9.3,4.5c-1.5,3.6-5.5,11.8-7.4,12.9s-3,2-3,4.3c0,2.1-0.9,8.3-3.5,8.8  c-2.6,0.4-3.5,2.9-3.5,4.5c0,1.6-1,4.8-3,5.6s-1.1,5.1-3.4,6.5c-2.1,1.5-9.1,4.6-12.9,6.9c-3.8,2.1-8.3,4.5-11.1,5.1  c-2.9,0.6-6.5,1.9-8.1,2.1c-1.6,0.3-7.2-1.6-8.5-0.3c-1.3,1.3-5.1,10.5-6.9,13.9c-1.8,3.5-2.6,5.3-2.6,7.3s-0.4,6.4-2.8,8.3  c-0.5,0.5-1.3,0.8-1.9,1.1c0.8,1.3,2.9,4.3,4.6,5.5c2.4,1.5,2.8,3.3,3.9,6.5c1,3.3,2.1,3.3,2,6.5c-0.1,3.3-1.1,7.9,0.3,8.5  s1.8,0.1,3.1-0.6c1.5-0.8,2.4-0.9,2.9,1.1c0.5,1.9,6.5,6.6,8,8.4c1.5,1.8,1.6,3,4.6,1.9c3.1-1.1,4.2-1.8,5.9-0.1  c1.6,1.8,3.1,2,4.9,1.8c1.8-0.4,7.1,0,8.6-1.8s3-3.5,5.3-2s3.9,6,6.9,5c3.1-1.1,7.1-2,8-0.3c1,1.8,1,2.1,2.6,1.4  c1.8-0.8,4.3-1.5,5.8-1.8c1.3-0.1,2.9,0.1,3.5,0.3c0-1.5,0-2.9,0.3-3.8c0.6-2.1,2.5-18.1,9-17.8c6.5,0.4,7.4,2.1,8.4,4.5  c1,2.4,2.6,4.6,5.6,3.9c3-0.9,6.9-3.5,8.3-8.5c1.4-4.9,0.6-3.6,5.6-7.6c4.9-4,9.3-6.3,10-7.4c0.6-1.1,7.4-6.9,12.1-6.5  c4.8,0.3,11.6,1.3,11.8-0.6s-1.8-13-2.9-14.1c-1.1-1.1-8-3.5-3.4-5c4.6-1.5,7.6-7,8.8-10.4c1.1-3.4,2.1-11.6,3.9-16.4  c1.6-4.8,0.4-6.5,2.4-8.3c1.6-1.4,7.4-7.1,8.8-8.5c-0.3-2-0.6-4-1.8-4.9c-1.6-1.3-4.8-3-7-5.9c-2.3-3-1.8-2.1-4-2.3  c-2.1-0.1-4.9-2.3-4.8-4.4s0.1-5.8,3.3-7.4s0.6-3.8-1.1-6.1c-0.3-0.4-0.3-0.9,0-1.4C622.3,501.3,619.6,503.6,618.1,505.9z" stroke-miterlimit="10" stroke="#FFFFFF"/>
<path name="安庆市" fill="#D3D3D3" id="path12" d="M547.1,638.6c-1.5,0.3-4,1-5.8,1.8s-1.8,0.4-2.6-1.4  c-1-1.8-5-0.9-8,0.3c-3.1,1.1-4.6-3.5-6.9-5s-3.8,0.3-5.3,2s-6.9,1.5-8.6,1.8c-1.8,0.4-3.3,0-4.9-1.8c-1.6-1.8-2.8-1-5.9,0.1  s-3.1-0.1-4.6-1.9c-1.5-1.8-7.4-6.5-8-8.4c-0.5-1.9-1.4-1.8-2.9-1.1c-1.5,0.8-1.8,1.3-3.1,0.6s-0.4-5.3-0.3-8.5s-1-3.3-2-6.5  c-1-3.3-1.5-5-3.9-6.5c-1.9-1.1-3.9-4.3-4.6-5.5c-2.1,1-4.4,1.6-4.9,3.1c-0.6,1.9-5.1,6-5.1,8.5c0,2.6,0,3-3.9,5.1  c-3.9,2-7.9,2.4-8.4,3.6c-0.6,1.3-4,6-6.6,6.5c-2.5,0.5-6.1,0.9-6.8,2.3s-4.5-0.9-7.6-0.6c-3.1,0.3-2.5-4.3-5.1-2.5  c-2.5,1.6-7.9,8.9-9,6.9c-1.3-2-0.8-5.3,1.3-7.1c2-1.7,3-11.9,1.3-11.7c-1.8,0.1-5.3,4.6-8.3,4.6c-3,0-8.9-6.4-12.6-5.3  c-3.8,1-8.6,3-10.5,7.1c-2,4.1-9,10.9-10.4,8.4c-1.4-2.4-0.8-6.6-6-6.5s-5.4-0.3-7.4,2.9c-1.6,2.6-4.1,6.7-4.9,8.1  c1.3,0.1,2.5,0,3.3,0c1.3,0,2.2,5.4,2.6,7c0.4,1.6-2.9,0.9-4.7,1.3c-1.8,0.4-4.1,2.2-6.4,2.2s-3.9,1.1-3.9,3.5  c0,2.3-1.7,2.4-4.6,2.3c-2.8-0.1-5.9,2.4-6.6,4.1c-0.8,1.6-0.5,4.7,0.9,7c1.4,2.2-0.6,3.4-0.9,5.9c-0.3,2.5-1.5,2.5-4.7,1.8  c-3.3-0.8-4.3,1.6-4.8,6s1.9,5.9,2.8,8.3c0.9,2.4,3.6,5.6,5,5.9c1.4,0.3,2.1,0.6,4,3.1c1.8,2.4,1.3,9.1,1.8,11.6s0.5,5.3,2.8,6.9  c2.2,1.6,1.9,2.6-1.4,3.4c-3.4,0.6-1.7,8.1-1,10.1c0.8,1.9,3.9,3.3,5.3,3.3s7.1,7.1,9.8,9.5c2.5,2.3,3.5,4.4,3.6,6.9  c0.1,2.5,0,4.3,0.8,6.4c0.8,2.1,1.1,3.8,1.1,5.8s0,3.4,0.9,4.7c0.9,1.4-0.5,4.5-1,9.1c-0.5,4.6,3.4,2.9,4.6,5s0.8,13.9,0.4,15.4  c-0.4,1.4,6.4,0.3,9.8,0.6c3.4,0.4,4.6,5.4,6.4,6.3c1.8,0.9,9.6-5.5,14.3-8.9c4.8-3.4,12.4-5.4,15-6.5c2.6-1.1,5.4-4.5,5.5-6.9  c0.1-2.4,2.4-9.1,4.5-11.8c2-2.6,3.1-3.6,8.4-3.8c3-0.1,6.4,1.1,8.9,2.6c1-1,9-9.1,10.8-11.4c1.9-2.4,4.6-10.4,6.8-12.9  c2-2.5,5.6-7.4,4.5-10.5s-2.9-5.1-2-7.9c0.9-2.8-1.1-5.5,1.4-7.2s11-11,18-9c7,2,12.1,6.4,15.6,0.5c3.4-5.9,3.4-10.8,2.6-13.5  c-0.9-2.8-1-7.5,1.6-7.8c2.6-0.3,9.1-6,12.4-5.9c3.3,0.1,9.3,3.1,11.6,1.8s4.5-6.4,7.4-8.8c2.9-2.4,16-3.1,19.4-7.4  c3.4-4.3,4.3-10.6,4.1-14.3c-0.1-2.1-0.4-4.9-0.4-7.3C550.1,638.8,548.4,638.5,547.1,638.6z" stroke-miterlimit="10" stroke="#FFFFFF"/>
<path name="六安市" fill="#D3D3D3" id="path13" d="M480.6,564.5c-2.8,0.9-4.3-0.8-5.9-1c-1.5-0.3-1.9,2.1-3.5,1.9  c-1.6-0.3-2-4-4.6-4.5c-2.6-0.5-2,1.5-2,3s-7,1.1-9.2,1c-2.3-0.1-4.4,0.6-5.1,1.1c-0.9,0.5-1.4,0-5.4-1.9c-4-1.9-6.6-8.8-4.6-11.9  c1.9-3.3,1.3-4.9-1.3-8.8c-2.6-3.9-3.5-7.1-6.5-10.5c-2.9-3.4-1-6,1.6-6.3c2.6-0.4,3-2.4,2.4-5.4c-0.6-2.9,5.9-7.5,9.6-7.5  c3.6,0,6-2.4,7.1-3c1-0.8,5.5-2.9,7-5.1c1.5-2.2,4.1,0.1,8-0.5s-3.1-12.6-4.9-15.3c-1.7-2.6,2.5-3.3,4.5-3.4c2-0.3,1.7-2.3,1.7-4.1  c-0.1-1.8-1.6-3.8-0.5-6.9c1.1-3.1,1.1-5.1,0.6-8c-0.6-2.9,1.1-7.5,0.9-9.5c-0.3-2-9.8-1.8-13.1-1.3c-3.4,0.4-4-2.5-3.6-6.3  s0.1-6.6,0.1-9.3c0-2.1-2.4-5.9-3.1-7c-2.6-0.5-5-2.8-5.8-5.1c-1-3.4-2.8-6-3.4-7.6c-0.6-1.6-1.3-2.8-2.9-2  c-1.6,0.8-0.5,1.5-0.5,4.3s-5.9,6.3-6.1,7.1c-0.4,0.9-3.9,2.9-6.4,2.8c-2.5-0.1-5.4,1.9-8.3,3c-2.9,1.1-4.5,4.9-4.7,6.4  c-0.1,1.5-1.8,3.8-2.6,3.1c-0.9-0.6-1.1,0.4-1.9,2.2c-0.8,1.9-2.9,1.5-4.1,0.6c-1.1-0.9-4.9-0.4-6.1-1s-5-5.1-5.9-7  c-0.8-1.9-5-2.1-6.5-2.1c-1.5,0-1.9,2.9-2.9,4.1c-1,1.1-1.1,1.4-0.1,2.6c1.1,1.3-2.8,2.2-4.9,2.1c-2.1-0.1-2.5-0.1-3.8,1.3  c-1.3,1.5-0.3,2.4-3.6-0.9c-3.4-3.1-5-9.5-5.6-11s-1.1-2.4-2.9-2.3c-1.9,0.1-4.1,0.1-5-1.9c-0.9-2.1-2.3-4.6-3.5-5.8  c-1.3-1.1-3.1-0.4-4.5,1.3c-1.3,1.4-5.1,2.3-6.1,2.5c0.1,1-2.6,5.3-3.9,6.3c-1.6,1.3-0.1,1.8,1,3.3c1.1,1.4,0.4,4,0.3,5.8  c-0.1,1.8,0.9,6.1,2.2,9.5c1.4,3.4,1,18.9,1,20.8s2,6.5,2.9,10c0.9,3.5-0.9,4.7-0.3,7.9c0.6,3.3,1.6,5.5,0,7.9  c-1.6,2.4-2.4,6.9-2.4,9.1c0,2.1-0.8,7.3-2,10.4s1,9.5,1.6,11c0.6,1.5-1.1,2.9-5.1,1.9c-4-0.9-3.3,0.1-4.7,1  c-1.5,0.9-4.9-1.4-8.6-1.3c-3.9,0.1-5.9,2-8,2s-8.9,2.5-11.6,6.1c-2.6,3.6-6.8,5.5-9.6,6.5c-2.8,1-4.5,3.4-4.5,5.6  c0,2.3-1.5,4-3.9,6.1c-2.3,2.1-3.9,6.5-3.9,9.1c0,2.5,0.8,6-0.5,8.5c-1.3,2.4-1.3,6.1-2,9c-0.8,2.9,2.5,1.4,4.5,1.1  c1.9-0.3,2.7,2.1,4.6,6.4c1.8,4.3,3.3,4.5,5.6,5.5c2.4,1,1.8,5.1,1.8,5.1s1.9,5.8,3.6,8.1c1.6,2.4,4.3-0.8,5.6-2.5s2.9-4.4,6.9-4.4  s8.4,6.1,8.9,8.8c0.5,2.5,1.6,6.9,3.5,7.6c1.8,0.8,5.8-4.3,8-6c2.2-1.7,4.4-0.1,4.6,2.4c0.3,2.5,1.4,3.6,3.3,5.1  c1.8,1.5,2.9,1.1,3.5,3c0.5,1.8,1.1,2.3,3.6,1.6c2.4-0.6,1.6,0.6,3.3,2c0.8,0.6,1.9,0.9,3,1c0.8-1.3,3.3-5.4,4.9-8.1  c2-3.1,2.1-2.8,7.4-2.9c5.3-0.1,4.6,4.1,6,6.5c1.4,2.4,8.4-4.4,10.4-8.4c2-4.1,6.8-6,10.5-7.1c3.8-1,9.6,5.3,12.6,5.3  s6.5-4.5,8.3-4.6c1.8-0.1,0.8,10-1.3,11.8c-2,1.8-2.4,5.1-1.3,7.1c1.3,2,6.5-5.3,9-6.9s2,2.9,5.1,2.5c3.1-0.3,7.1,2,7.6,0.6  c0.6-1.4,4.2-1.8,6.7-2.3s6-5.1,6.6-6.5c0.6-1.3,4.5-1.6,8.4-3.6c3.9-2,3.9-2.5,3.9-5.1s4.5-6.6,5.1-8.5s4.4-2.4,6.6-4.3  c2.4-1.9,2.8-6.3,2.8-8.3s0.9-3.8,2.6-7.2c1.8-3.5,5.5-12.6,6.9-13.9c1.3-1.3,7,0.6,8.5,0.3c1-0.1,2.6-0.8,4.5-1.3  c-0.8-0.4-2.5-1.4-4-2.8C491,562.6,483.4,563.6,480.6,564.5z" stroke-miterlimit="10" stroke="#FFFFFF"/>
<path name="合肥市" fill="#D3D3D3" id="path14" d="M563.8,477.3c-1.8-2.1-5.4,0.3-5.4,0.3s-2.5,0-4.4-2  s-2.8-1.5-7.9-2.6c-5.1-1.1-4.7,0-7.4,0.8c-2.6,0.8-4.6,0-5.6,1.5c-1,1.5-2.6,3-6.6,5.4c-4,2.4-10.8-5.1-13.5-7s-4.5-3-1.1-4.3  c3.4-1.1,4.3-5.6,3.9-9.3c-0.3-3.6-4.2-2.9-7.2-2.8c-3,0.1-2.1-2.5-0.1-6.4c2-3.9,1.1-4.6-0.4-3.8c-1.6,0.9-2.8,1.3-4.5-0.3  c-1.7-1.6-4.5,1-9.4,0.3c-4.9-0.8-5.3-8-4.4-11.1c0.9-3.3-1.1-4.5-1.1-7.3c0-2-1-3.9-1.9-5.6c-0.5,0.6-2.1,2.4-5,3.5  c-3.6,1.5-9.6-0.3-14.1-0.4c-4.5-0.1-5,1-6.3,3.4c-1.1,2.4-3.8,2.6-7.4,4.4c-1,0.5-2.1,0.6-3.3,0.4c0.8,1.1,3.1,4.9,3.1,7  c0,2.6,0.3,5.5-0.1,9.3s0.3,6.6,3.6,6.3s12.8-0.8,13.1,1.3c0.3,2-1.4,6.6-0.9,9.5c0.6,2.9,0.6,4.9-0.6,8c-1.1,3.1,0.4,5.1,0.5,6.9  c0.1,1.8,0.3,3.9-1.8,4.1s-6.4,0.8-4.5,3.4c1.7,2.6,8.9,14.6,4.9,15.3c-3.9,0.6-6.6-1.6-8,0.5c-1.5,2.3-5.9,4.4-7,5.1  c-1,0.8-3.5,3-7.1,3c-3.6,0-10.3,4.6-9.6,7.5s0.1,5-2.4,5.4c-2.6,0.4-4.5,2.9-1.6,6.3s3.9,6.6,6.5,10.5c2.6,3.9,3.3,5.5,1.3,8.8  c-1.9,3.3,0.6,10,4.6,11.9c4,1.9,4.6,2.4,5.4,1.9c0.9-0.5,2.9-1.1,5.1-1.1c2.2,0.1,9.4,0.5,9.3-1c0-1.5-0.8-3.4,2-3  c2.6,0.5,3,4.3,4.6,4.5c1.6,0.3,2-2.1,3.5-1.9c1.5,0.3,3,1.9,5.9,1c2.8-0.9,10.4-1.9,12.4,0c1.5,1.4,3.3,2.4,4,2.8  c1.3-0.4,2.5-0.8,3.6-0.9c2.9-0.6,7.4-2.9,11.1-5.1c3.8-2.1,10.8-5.4,12.9-6.9c2.1-1.5,1.3-5.6,3.4-6.5c2-0.9,3-4,3-5.6  s0.9-4,3.5-4.5c2.6-0.4,3.5-6.5,3.5-8.8c0-2.1,1.1-3,3-4.3c1.9-1.1,6-9.3,7.4-12.9c1.5-3.6,6.3-4.4,9.3-4.5c3-0.1,0.1-2.8,4.5-5.8  c4.4-3,1-7.5,2.5-11.8C566.1,485.6,565.5,479.4,563.8,477.3z" stroke-miterlimit="10" stroke="#FFFFFF"/>
<path name="阜阳市" fill="#D3D3D3" id="path15" d="M418.4,429.5c-2.4,0-2.6-2.3-3.9-6.3c-1.3-3.9-2-4.9-6.1-5.9  c-4.1-1-4.7-2.5-4.9-4.9c-0.1-2.3,0.1-7.3,0.6-10.5c0.5-3.1-0.3-5.1-0.9-7.1s-1.8-1.9-3.6-1.6s-0.9-2.3-0.1-4.1  c0.6-1.6-1.3-1.9-2-1.9c-1.6,1.7-5.5,2.4-10.4,2.4c-6.6,0-8.1-3.8-9.6-8.3s-5.3-5.4-7.5-6.3c-2.4-0.9-12.1-2.4-7.4-4  c4.8-1.7,0-7.4-3.8-9.2s-11.9-3.5-15.5-3.6c-3.6-0.1-7.2-5.1-10.6-8.3c-3.4-3.3-1.1-4.5,1.1-6.4c2.4-1.9,0.1-4.9,0.1-7.5  c0-2.6,3.1-1,5,0.4c1.9,1.4,4.1,4.3,4.9-0.9c0.9-5.1-1.3-6.4-0.9-11.8c0.4-5.4-0.9-2.8-2.1-4.6s-1.5-4.4-3.5-4.5  c-2-0.1-6.3-3.4-7.4-4.9s-4.4-3.3-8.8-3c-3.9,0.3-6.3-8.4-6.9-10.6c-0.5,0.1-1.3,0.1-2.4,0.1c-3,0-3.9,0.2-5.8,1.7  c-1.8,1.4-7.1,2.3-8.6,1.6s-4-1-6.8-1c-2.7,0.1-2.4,3-2.6,5.5c-0.3,2.6-4,0.1-5.4,0.8s-0.3,5.4-1.6,6.6s-1.6,2.6-2.1,6.3  c-0.5,3.8,1,6.6,3.4,8.9s-0.4,6.3-1,7.8c-0.6,1.5-1,6.6-2.6,7.9c-1.6,1.4-2.8,7.8-3.9,10.1c-1.1,2.4-0.6,3-4.9,2.9  c-4.3-0.3-7.3,2.9-9,4.6s-7,1.5-13.5,0.8c-6.5-0.8-8.6-5.4-9.8-9.1c-1.1-3.8-4.1,0.9-5.8,4.4c-1.6,3.5,0.1,8.6,2,12  s-1.5,5.3-3.1,6.5s1.4,3.1,2.6,4.3c1.4,1.1,4.9,1,9.4,1.1c4.5,0.1,2.9,1.5,3,3.4c0.1,1.9,4.9,2,9,2s3,1.3,3.4,3.8  c0.4,2.4,2.4,2.1,4.1,2.3s1.6,0.4,1,3.3c-0.6,3-0.1,2.6,0.6,4.1c0.8,1.4-0.6,1.8-1.4,2.9c-0.8,1.1,0.5,2.5-1,5.3s-0.9,6.6-0.5,8.3  c0.4,1.6-0.8,2,1,1.9c1.9-0.1,2.5,0.5,2.7,1.9c0.3,1.4-1,1.1-2.3,1.3c-1.3,0-0.5,1.9-0.1,2.5c0.4,0.8,0.3,1.5-0.6,2.1  c-1,0.6-0.6,1.1,0.4,1s0.3,0.6,2.3,1.3c2,0.8,6.3,1.5,7.5,0.5s2.3,1.6,2.3,3.3c0,1.6,2.9,1.4,3.8,0.1c0.9-1.1,4.4-0.1,5.8-0.5  c1.4-0.4,2.4,0.6,2.6,2c0.3,1.4,3.9,2.6,5.4,3.8c1.5,1,3.5,1.1,4.3,4.6s4,6,5.4,7c1.4,1,2.4,1.5,2.3,3.3c-0.1,1.6,1.4,0.8,2.3-0.4  c0.9-1.1,5.9,0.4,8.5,0.4s2.1-1.9,2.1-3.6c0-1.6,0.1-3.1,1.8-5.6s2.5-0.6,4.4,0.6c1.8,1.3,2.9-0.9,4.5-1.6c1.5-0.8,0.3,3.1,1.9,3.5  c1.6,0.4,4.5-3.4,5-5.1c0.5-1.8,4.6-6.6,7.4-8.3c0.6-0.4,0.9-0.4,1,0c1.1-0.3,4.9-1.1,6.1-2.5c1.5-1.6,3.3-2.4,4.5-1.3  c1.3,1.1,2.8,3.6,3.5,5.8c0.9,2.1,3.1,2,5,1.9s2.2,0.8,2.9,2.3s2.2,7.8,5.6,11c3.4,3.1,2.4,2.3,3.6,0.9c1.3-1.5,1.6-1.5,3.8-1.3  c2.1,0.1,6-0.9,4.9-2.1c-1.1-1.3-0.9-1.5,0.1-2.6c1-1.1,1.5-4.1,2.9-4.1c1.5,0,5.8,0.3,6.5,2.1c0.8,1.9,4.6,6.5,5.9,7  c1.3,0.6,5,0.1,6.1,1c1.1,0.9,3.4,1.3,4.1-0.6c0.8-1.9,0.9-2.8,1.9-2.2c0.9,0.6,2.5-1.6,2.6-3.1c0.1-1.5,1.7-5.3,4.7-6.4  c1.9-0.8,3.8-1.9,5.5-2.5C423.5,429.8,420.6,429.5,418.4,429.5z" stroke-miterlimit="10" stroke="#FFFFFF"/>
<path name="淮南市" fill="#D3D3D3" id="path16" d="M485.5,421c-0.9-2.1-2.1-4.6,0-7.5c2.1-2.9-2.6-5.6-6.6-6.4  s-4.3,4.9-5.8,3.4c-1.6-1.6-5.1-6-7.9-6.4c-2.8-0.4-19.6-15.4-21-17.3c-1.5-1.9-4.3-1-6.4-3.3c-2.1-2.1-7.6-1.6-10.3-2.5  s-4.5,1.8-6.5,2.4s-5.1,0-7.5-2.5c-2.5-2.5-9-4.4-13.3-4.6c-4.3-0.3-1.8,4.8-1.8,8.5c0,1-0.4,1.8-0.9,2.4c0.8,0,2.5,0.3,2,1.9  c-0.8,1.9-1.8,4.4,0.1,4.1s2.9-0.4,3.6,1.6c0.6,2,1.4,4,0.9,7.1s-0.8,8.1-0.6,10.5c0.1,2.3,0.8,3.9,4.9,4.9c4.1,1,4.9,2,6.1,5.9  c1.3,3.9,1.5,6.3,3.9,6.3c2.2,0,5.1,0.3,4.5,4.6c0.9-0.4,1.9-0.5,2.8-0.5c2.5,0.1,6-1.9,6.4-2.7c0.4-0.9,6.1-4.4,6.1-7.1  s-1.1-3.5,0.5-4.3c1.6-0.8,2.3,0.4,2.9,2s2.4,4.4,3.4,7.6c1,3.4,5.3,6.5,9,4.8c3.6-1.8,6.3-2,7.4-4.4c1.1-2.4,1.8-3.5,6.3-3.4  c4.5,0.1,10.5,1.9,14.1,0.4c2.9-1.1,4.4-2.8,5-3.5C486.1,422.4,485.8,421.6,485.5,421z" stroke-miterlimit="10" stroke="#FFFFFF"/>
</svg>