<?xml version="1.0" encoding="UTF-8" standalone="no"?><!-- Generator: Adobe Illustrator 18.0.0, SVG Export Plug-In . SVG Version: 6.00 Build 0)  --><svg xmlns="http://www.w3.org/2000/svg" xmlns:xlink="http://www.w3.org/1999/xlink" contentScriptType="text/ecmascript" zoomAndPan="magnify" contentStyleType="text/css" id="图层_1" mapName="广西省" mapType="省市地图" enable-background="new 0 0 800 600" version="1.1" xml:space="preserve" preserveAspectRatio="xMidYMid meet" viewBox="0 0 800 600" x="0px" y="0px">
<path name="百色市" fill="#D3D3D3" id="path0" d="M368.5,323.8c-0.2,0.1-0.3,0.2-0.5,0.3c-1.1,0.5-5,3.5-6.9,3.3  c-1.9-0.2-3.4-0.8-4.1-2.9s-2.8-7.7-3.6-10.7c-0.6-2.3-0.4-5.2,0.4-5.9c0-1.1,0.8-3.1,2.1-3.4c1.4-0.3,2.8-2.5,5.7-4.8  c2.8-2.3,0.3-4.8-0.4-6.1c-0.6-1.3-1.2-1.2-2.8-0.9c-1.7,0.3-1.9-0.6-3-1.8c-1-1.2-1.3-1.7,0-2.6s-0.5-1-2.7-1.2  c-2.2-0.1-1.8,0.6-4.1,2.2c-2.3,1.5-5.4,1-6.7-0.5c-1.3-1.5-2.2-3.1-3.7-3.2c-1.5-0.1-2.3-0.9-2.2-2.3c0.1-1.4-1.2-1.7-2.4-1.5  c-1.3,0.1-0.8,2.1-3.7,4c-3,1.9-6.8-4-7.2-5.5c-0.4-1.5-0.5-2.5-4-1.7c-3.5,0.8-5-5.2-5.1-7.6c-0.1-2.5-3.3-1.2-3.6,0  c-0.3,1.2-1.5,2.2-4.1,1.2s-7.3-3-8.6-5.9s-3.9,0.1-5.7,1c-1.8,0.9-4.6-2.6-5.8-4.6s-2.1-2.5-4-2.5c-1.9,0-5.1-4.5-7.1-6.4  c-1.9-1.9,0.1-5.2,2.2-6.3c2.1-1.2,1.9-4,0.1-7.3c-1.8-3.4-1-4.4,0.4-7c1.4-2.6-1.2-4-4-4.6c-2.8-0.6-3.3-5.5-3.3-7.2  s-2.1-1.9-3.3-1.9c-1.3,0-1.3-2.1-0.5-3.4c0.8-1.3,0.4-2.2,0.4-3.9c0-1.7-2.4-2.6-3.6-1.9c-1.2,0.6-1.5,0.8-2.8-0.4s4.2-4.6,6.6-4.8  c2.4-0.2,3.9-0.4,4.2-1.9c0.3-1.5-7.5-6.8-9.8-7.7c-2.4-0.9-5.1-3.8-3.2-5.9c1.9-2.1,8.3,1.2,10.1,1.5c1.8,0.3,1.3-1.9,0.7-2.8  c-0.6-0.9-0.1-2.4,1.5-3.1c1.6-0.7,1.4-1.8,1-3.8c-0.4-2-3-1.5-3.4-3.1c-0.4-1.6-2.3-4.5-3.8-6.6c-1.5-2.1-1.1-2.9-0.2-5  c0.9-2.1,0.7-2.5-0.5-3.6c-1.2-1.1-1-0.8-1-2.2c0-1.4-2.2,0.3-3.9,1.5c-1.7,1.2-3.1,0.7-5-0.1s-3.4-1.5-5.3-1.1  c-1.7,0.4-5.4-0.4-6-0.6c-2.1,1.7-9.3,3.9-11.8,6.2c-2.7,2.5-9.3,3-11.4,2.1s-2.3-1.1-3.3,0c-1,1.1-1.8,2.2-3.8,1.4  c-1.9-0.8-1.9,1.9-0.2,3.8c1.7,1.8,1.9,5.6,2,7.3c0.1,1.7,0.6,7-1.4,8.1c-2,1.1-3.2,1.5-4.7,3.8c-1.5,2.3-3.2,3-5.2,3.3  c-2,0.3-3.1,1.2-3.1,2.9s-0.1,2-3.2,3c-3.1,1-6.5-7.2-6.8-8.4c-0.3-1.2-3.4,0.5-5.8,0.2c-2.4-0.3-2.3,0.1-3.8,1.8  c-1.5,1.7-6.4-1.7-9.6-4.7c-3.2-3-4.8-2.2-6.6-2.2c-1.8,0-1.7,0.4-3.8-2c-2.1-2.4-4.1-0.9-6.8-0.4c-2.7,0.5-6.3-6.8-6.9-9.2  c-0.6-2.3-1-3.9-4-5.3c-3-1.4-5.1,0.3-8.4,1c-3.2,0.8-4.6,0.3-5.1-1.4c-0.5-1.7-0.5-0.8-4.1-4.3c-3.6-3.5-7.4,2.1-9.3,2.9  c-1.9,0.8-3.1,3.6-4.7,4.8c-1.6,1.2-1.7,1.2-2.3,6.9c-0.6,5.7-10.4,6.2-13.1,6.6c-2.7,0.4-3.1,1.8-3.1,3.5c0,1.7-1.9,3.6-4.5,4  c-2.6,0.4-4.7,1.6-6.9,4c-2.2,2.5-3.4,2.5-4.9,0c-1.6-2.5-3-0.8-4.7-1c-1.7-0.3-4.4-1-4.8-3.1c-0.4-2.1-0.9-2.1-3.2-4.3  c-2.3-2.2-3.6-0.1-3.6,1.3s-3.1,5.2-3.1,5.2s-0.9,1.4,0,1.9c0.8,0.4,0.8,1.7,0.8,3.8s1.4,4.8,2.9,5.9c1.5,1.1,1.5,4.6,1.5,7.3  s2.7,3.6,3.6,5.2c1,1.5,0.8,4.5,2,4.5c1.1,0,1.3,0.6,2.5,2c1.3,1.4,1.8,2.9,4.6,2.9c2.8,0,1.8-1.3,1.3-2.8s-0.4-3.5-1.1-6.2  c-0.7-2.7,1.4-2.8,3.6-3.8c2.2-1,4.9,2.2,8,1s6.6,1.7,9.2,3.5c2.7,1.8,10.1-2.1,11.7-2.8c1.7-0.7,3.9,1.3,4.3,4.3  c0.4,3.1,4.5,3.5,7.3,5c2.8,1.5,1,2.9,0,4.6c-1,1.7,1.4,7.3,4.6,10.1c3.2,2.8-1.1,4.1-4.1,5.6c-2.9,1.5,4.5,8,6.2,8.4  c1.7,0.4,5.6-2.7,7.8-2.8c2.2-0.1,3.5,0.4,4.3,4.1c0.8,3.6,7.1,4.1,9.9,3.6c2.8-0.4,3.5-2.7,3.2-5.7c-0.3-3.1,2.7-3.5,6-4.8  c3.4-1.3,3.6,0.4,4.2,2.4c0.6,2,0.3,2.9,0.7,5c0.4,2.1,3.5,1.8,3.9,0.1c0.4-1.7,7.3-1.5,8.7-1.5s0,2.1,1.4,3.9  c1.4,1.8,3.5,0.3,4.1-0.6c0.6-0.8,1-1.1,1.7-0.1c0.7,1,1.8,0.6,3.1-1c1.3-1.5,0-3.9,0.4-5.7c0.4-1.8,7.1-1.1,10.1-1.3  c2.9-0.1,3.4,2.9,3.9,5.3c0.6,2.4,1.5,3.2,3.9,3.8c2.4,0.6,1.4,2.5,1.4,4.8c0,2.2,2.8,4.2,3.5,6.3c0.7,2.1,2,3.6,3.8,3.9  c1.8,0.3,1.5,1.3,0.4,1.8c-1.1,0.6-0.8,2.1-0.1,3.6c0.7,1.5-2,1.8-3.9,1.8c-2,0-2.8,2.1-1,3.5c1.8,1.4,1.7,4.1,1.7,7.3  c0,3.2-0.8,8.1-2.4,9.5c-1.5,1.4-1,2.5,0,3.5c1,1,1,4.3-1.3,4.9c-2.2,0.6-2.7,1.4-7.3,5.5c-4.6,4.1-4.6-0.7-5.7-2.1s-4.3-1.1-6-1.1  c-1.7,0-3.4-1.5-4.3-2.7c-1-1.1-5,1.8-5.5,3.9c-0.4,2.1-1.5,2.1-3.1,2.2c-1.5,0.1-4.1,2-5.2,3.8c-1.1,1.8-2.7,2.4-4.5,2.4  c-1.8,0-1,1.8,0.6,3.2c1.5,1.4-0.1,3.2-2,3.5c-1.8,0.3-2.7,0.1-3.2,1.3c-0.6,1.1-2.1,1.8-3.6,1.4c-1.5-0.4-2.7,0-1.8,1.8  c0.8,1.8-1.4,3.2-3.2,3.9c-1.8,0.7-0.7,0.6-1,3.5c-0.3,2.9,1,4.6,2.7,6.9c1.7,2.2,0.8,7.3,1.3,9.8c0.4,2.5,2,1.5,3.5,0.6  c1.5-1,3.4-0.8,5.2-1c1.8-0.1,5.7,1.7,6.7,3.8c1,2.1,4.2,4.2,5.9,4.9c1.7,0.7,3.2,2.2,4.9,3.4c1.7,1.1,2.5,4.1,4.8,3.4  s2.8-0.4,5.9-0.8c3.1-0.4,1-1.5,2.8-4.1c1.8-2.5,6.6-0.7,11.6-0.8c5-0.1,4.8,0.6,8,2.5c3.2,2,4.1,3.5,4.2,6.2s1.3,3.4,2.8,3.1  c1.5-0.3,0.7,0.3,2.8,1c2.1,0.7,3.2,0.6,5.6-0.7c2.4-1.3,3.5-1.3,7.3-2s3.4-2.4,5.7-4.6c2.4-2.2,4.2,0.3,6.4,0.6  c2.2,0.3,3.2,2,4.8,4.2c1.5,2.2,4.1,1.4,5.2-0.1c0.6-0.8,0.9-0.8,1.4-0.3c0.8-1.1,7.4-10,8.6-11.8c1.2-1.9,3.3-4.5,0.3-5.6  c-3-1.1-2.3-3.4-2.1-5.2c0.2-1.8,0.6-4.5,0.2-5.4c-0.4-0.9,2.1-1,3.4-1.6c1.2-0.6,9.3-2.6,10.3-6c1-3.5,2.2-6.9,6.3-5.5  c4.1,1.4,7.5,3.6,10.8,2.3c3.4-1.2,6.5-3.3,7.4-4.5c0.8-1.2,1.9-0.7,2.7,0c0.7,0.7,4.4,1.6,6.4-0.2c2-1.8,3-3.8,5.5-3  c2.6,0.8,3.5,3.6,3.5,4.8c0,1.2-0.5,5.7,3.4,6.6c3.9,0.9,4.5,1,5.4,2.3c0.9,1.3,1.7,1.5,3.2,1.5c1.4,0,7.1,1.9,7.1-1.3  s0.4-8.9,4.1-8c3.7,0.9,6.5,2.5,8.3,1.9c1.7-0.5,3.7-2.9,4.5-4.9c0.8-2,1.1-3,3-2.6c0.8,0.2,1.5,0.3,2.1,0.5c0.1-1.9,5-7.1,5.8-8.5  C368.4,326.1,368.5,324.8,368.5,323.8z" stroke-miterlimit="10" stroke="#FFFFFF"/>
<path name="南宁市" fill="#D3D3D3" id="path1" d="M454.4,406c-2-3-2-4-0.4-6.2s1.4-6.2,0.9-9.2  c-0.5-2.9-0.9-5-1.6-6.8c-0.7-1.8,0.1-4.2,0.5-4.9c0.4-0.7,1.5-5.5,0.1-6c-1.4-0.4-3.4-0.7-3.2-2.3c0.2-1.6-0.4-3.6-2-4.3  c-1.7-0.7-3.7-0.4-4.1-2.7c-0.4-2.2-1.9-5.1-5.5-4.6c-3.7,0.5-9.1,1.1-8.6-1.9s2-3.9,2.4-4.6c0.4-0.7,1.9-3.9,1.7-5.7  s-1.2-9.4-5.1-12.1c-3.8-2.8-6.6-5.9-5.5-6.9c1.1-1,1.8-2.8,0.3-4c-1.5-1.2-5.6-1.7-6.3-3.3c-0.7-1.6-0.5-2.4-2.3-2.5  c-1.8-0.1-3,0.2-4.5-1c-1.4-1.2-3.1-0.4-5,0.7c-1.9,1.2-5.5,2.9-6.9,1.7c-1.3-1.2-3.1-1.2-3.5,0.4s-0.2,4.1-2.8,4.4  c-2.6,0.3-7.4-2.2-7.5-1.2c-0.1,1,1.5,1.5,1.5,3.7s-0.9,2.5-2.9,1.6c-2.1-0.9-6-2.2-7.3-3.7c-1.3-1.4-4.9-2.1-5.7-2.7  c-0.7-0.5-1.8,1.1-2.8,1.9c0,1-0.1,2.3-0.5,3.1c-0.8,1.4-5.7,6.6-5.8,8.5c0.9,0.3,1.5,0.7,1.5,1.9c0,1.9,0.1,6.1,2.3,7  c2.2,0.9,6.8,1.1,8.2,3.8c1.3,2.7,6.9,8.4,8,9.4s4.3,4.4,2.2,4.4s-6.2-1.3-6.2,0c0,1.3-1.1,4.7-2.2,6.7c-1.1,2-5.2,5.6-7.6,5.7  c-2.3,0.1-9.1-0.1-9.7,2.3c-0.6,2.5,0.1,4.6,4.1,5.7s6.2,3,8.4,3c2.1,0,3.4,0.5,4.4,2s2.7,3.7,4,3.9c1.3,0.2,2.2,3,1.2,5.1  c-1,2.1-1.5,4.2,0.4,6.5s3.8,2.8,4.6,0.3c0.8-2.5,1.4-3.7,2.9-3.1c1.4,0.6,0.8,6.1-0.6,6.9c-1.4,0.8-6.6,1.2-7.5,2.3  c-0.8,1.1-1.7,2.3-0.1,3.5c1.6,1.1,2.1,1.5,0.9,2.7c-1.2,1.1-3.3,3.1-1.9,4.4s2.8,1.4,4.9,1.4c2.1,0,3.1,1.9,4.3,2.6  c1.2,0.6,0.8,0.8,0.5,2.1c-0.3,1.3-0.7,2.9,0.6,3.8c1.3,0.9,0,2-1.5,2.9c-0.5,0.3-1.1,0.5-1.8,0.7c0.5,0.2,1.7,0.6,2.5,0.6  c1,0,2.2,0.9,2.3,2.3c0.1,1.4-0.1,3.9,2.2,4.7s2.7,0.5,4.7-0.3c1.9-0.8,3.7-1.6,4.6,0.8c0.9,2.4,2.7,3.7,3.5,3.7  c0.7,0,2.4,1.8,3,3.3c0.3-0.2,0.6-0.5,0.7-0.8c0.9-1.7,6.3-4,8.2-3.5c1.9,0.5,4.7,3.9,7.9,1c3.2-2.9,4.3-7.6,5.2-10.5  c1-2.8,2.2-6.8,3.6-6.8c1.4,0,3.2-3.1,5.2-3.1c2.1,0,6-1.4,7.3-3.6c1.2-2,7.2-7.9,9.1-7.2C456.3,412.7,456.2,408.5,454.4,406z" stroke-miterlimit="10" stroke="#FFFFFF"/>
<path name="河池市" fill="#D3D3D3" id="path2" d="M423.5,266.8c-0.6-1.8,1-2.9,2.5-2.3c1.4,0.6,3.7,3.9,5,1.8  c1.3-2.1,1.1-5.6,1-7.1c-0.1-1.5,0.9-4.6,2.9-4.4c2,0.2,3.4-1.4,3.6-2.4c0.2-1,0.6-3.5,1.6-4.7c1-1.2,2.9-5.1,2.4-6.2  c-0.5-1.1-1.8-2.1-0.3-2.4c1.5-0.3,4.6-1,4.3-2.8c-0.3-1.8-0.5-4.6,0.8-3.5c1.3,1.2,3.1,1.8,4.7,1.2c1.5-0.7,2-0.2,2.2,1  c0.2,1.2,1,5.1,2,6.1c0.9,0.9,3.3,0.5,3.9,0.3c0-0.4,0.1-1,0.5-1.9c0.8-2,0.1-6.7,2.2-6.9c2.1-0.2,2.4-3,3.5-4.5  c1-1.5,2.9-1.2,1.6-3.2c-1.3-2.1-0.7-3-2.3-3c-1.6,0-3.5-1.5-5.5-1.5c-2.1,0-5.2-2.8-5.3-4.6c-0.1-1.9-0.1-3.5,1.3-3.4  c1.4,0.1,0.5-1.7,1.8-3.4c1.4-1.6,7-3.1,5.8-5.3c-1.3-2.2-4-4.5-1.8-5.6c2.2-1,2.4-3.1,3.1-4.9s1-3.2,2.4-4.2  c1.4-0.9,1.2-1.1,2.3-1.2c1.1-0.1,1.8,0.6,2.9,2c1.1,1.4,2.7,0.9,3-0.2c0.4-1.1,1.2-2.4,2-1.3c0.1,0.1,0.1,0.1,0.2,0.2l0-0.4  c0.8-1.7-1.2-3.7-2-4.3c-0.8-0.6,1.7-4.3,0.2-4.4c-1.5-0.1-1.1-2.4-1.4-3.9c-0.3-1.5-1.8-0.1-3.1,0.7c-1.3,0.8-4.1,0.5-6.3,0.5  c-2.2,0,0.7-6.5,3.8-8.6c3.1-2.1,2.7-5,3.2-9.5c0.4-4.6-2.6-3.1-5.2-5.2c-2.5-2.1-3.2,0.1-4.3,1.5c-1.2,1.4-3.2,0.4-4.3-1.1  c-1.2-1.5-3,0.3-4.5-1.1s-1.5,1.4-2.2,3.4s-4.7,1.2-7.3,0.5c-2.6-0.6-2.3-3.8-2.3-6.1c0-2.3-1.1-2.5-2.5-3.7  c-1.5-1.2-2.4-4.2-2.5-6.6c-0.1-2.3-1.7-3.4-2.3-4c-0.4-0.4-0.3-1.6-0.3-2.6c-0.4,0-0.8,0-1.2-0.1c-2.3-0.6-2.1-2.2-3.2-5.2  c-1.1-3-2.9-3.3-5.1-5.5c-2.2-2.2-5.1-1.7-6.5-0.9c-1.4,0.8-2.4-0.3-3.2-2.6c-0.8-2.3-2.8-4-5.7-5.3c-3-1.3-3.4-0.6-3.4,1.9  c0,2.4-2.5,3.6-4.7,3.2c-2.2-0.4-1.9-0.4-1.7,2.5c0.2,3-1.9,1.5-3.1,0.6c-1.2-1-1.5-1-3-0.4c-1.4,0.6,0.4,1.2,2.1,2.8  c1.7,1.5-0.2,2.6-2.5,2.4c-2.3-0.2-1.3,1.7-0.8,3.2c0.6,1.5-0.8,9.9-2.5,13.9c-1.8,4-4.6,3.3-7.8,2.8c-3.2-0.6-6.4,2.6-9.6,2.9  c-3.2,0.2-5,2.5-5.7,4c-0.8,1.4-3.4,1.7-4.7,0.8c-1.3-0.9-1.9-0.3-3.3,1.2c-1.4,1.5-1-3.1-0.9-5c0.1-1.9-0.8-2.3-1.2-5.4  c-0.4-3.1-3.1-1.2-3.4,0c-0.3,1.2-2.4,2.4-2.4,0.8c0-1.7,0.2-2.4-1.4-3c-1.7-0.6-2-0.3-1.8-4.1c0.2-3.7,0-3.4-2.1-3.1  c-2.1,0.3-1.4,2.1-1.5,3.6c-0.1,1.5-2.2,0.3-4,2.3c-1.8,2-4.1,2.6-6.8,3.1c-2.8,0.4-2.6-2-2.8-4.5c-0.1-2.5-0.2-2.3-1.9-2.4  c-1.7-0.1-3-4.2-2.9-7.4c0.1-3.3-0.3-4.3-1.9-4.1c-1.6,0.1-2-1-5.4-1.1c-3.4-0.1-4.3-1-2.7-5.1c1.6-4.1-3-8.3-4-8.9  s-4.7-0.1-3.4-2.3c1.3-2.1,1.6-2.4-0.9-2.9c-2.4-0.4-2.3-0.6-3.6,2c-1.3,2.6-5.7,2.4-8,2.3c-2.3-0.1-2,0.6-1.6,2.7  c0.4,2.1-0.6,2.3-2.9,3.4c-2.3,1.1-3.7,4.3-5.9,7.1c-2.1,2.9-1.7,4,0.1,5.3c1.9,1.3,2.9,3.3,2.7,6.6s-2.6,7.3-4.4,7  c-1.8-0.3-3.2-1.1-4.2,2.3c-1.1,3.4-3.7,3.9-5.8,3.9s-2.1-0.6-2.9,0.8c-0.8,1.5-3,1.5-4.2,0.4c-1.2-1.1-1.7-1.1-2.5,0.7  c-0.8,1.8-4.2-0.1-5.9-0.6c-1.7-0.5-5.8,3.5-7.6,6c-1.8,2.5-2.1,2.5-3.8,2.5c-1.7,0-3.4,0.1-4.4,1.9c-0.1,0.2-0.3,0.3-0.5,0.5  c0.5,0.1,4.2,0.9,6,0.6c1.9-0.4,3.4,0.3,5.3,1.1s3.3,1.3,5,0.1c1.7-1.2,3.9-2.9,3.9-1.5c0,1.4-0.2,1.1,1,2.2  c1.2,1.1,1.4,1.5,0.5,3.6c-0.9,2.1-1.3,2.9,0.2,5c1.5,2.1,3.4,5,3.8,6.6c0.4,1.6,3,1.1,3.4,3.1c0.4,2,0.6,3.1-1,3.8  c-1.6,0.7-2.1,2.2-1.5,3.1c0.6,0.9,1.1,3.1-0.7,2.8c-1.8-0.3-8.2-3.6-10.1-1.5c-1.9,2.1,0.8,5,3.2,5.9c2.4,0.9,10.1,6.2,9.8,7.7  c-0.3,1.5-1.8,1.7-4.2,1.9c-2.4,0.2-7.8,3.6-6.6,4.8s1.7,1,2.8,0.4c1.2-0.6,3.6,0.3,3.6,1.9c0,1.7,0.4,2.6-0.4,3.9  c-0.8,1.3-0.8,3.4,0.5,3.4c1.3,0,3.3,0.3,3.3,1.9s0.5,6.6,3.3,7.2c2.8,0.6,5.4,2.1,4,4.6c-1.4,2.6-2.2,3.6-0.4,7  c1.8,3.4,1.9,6.2-0.1,7.3c-2.1,1.2-4.1,4.4-2.2,6.3c1.9,1.9,5.1,6.4,7.1,6.4c1.9,0,2.8,0.4,4,2.5s4,5.5,5.8,4.6c1.8-0.9,4.4-4,5.7-1  s6,4.9,8.6,5.9s3.9,0,4.1-1.2c0.3-1.2,3.5-2.5,3.6,0c0.1,2.4,1.7,8.4,5.1,7.6c3.5-0.8,3.6,0.1,4,1.7c0.4,1.5,4.2,7.5,7.2,5.5  c3-1.9,2.4-3.9,3.7-4c1.3-0.1,2.6,0.1,2.4,1.5c-0.1,1.4,0.6,2.2,2.2,2.3c1.5,0.1,2.4,1.7,3.7,3.2c1.3,1.5,4.4,2.1,6.7,0.5  c2.3-1.5,1.9-2.3,4.1-2.2c2.2,0.1,4,0.3,2.7,1.2s-1,1.4,0,2.6c1,1.2,1.3,2.1,3,1.8c1.7-0.3,2.2-0.4,2.8,0.9c0.6,1.3,3.2,3.7,0.4,6.1  c-2.8,2.3-4.2,4.5-5.7,4.8c-1.3,0.2-2.1,2.3-2.1,3.4c0.3-0.2,0.6-0.2,0.9,0.3c1.4,1.9,2.5,3.6,4.3,2.5c1.8-1.1,2.8-1.8,4.1-1.3  c1.3,0.4,3.6,0.2,4.7-0.6c1.2-0.8,2.3-1.4,3.9-1.4s4.6-1.3,5.4-0.1c0.8,1.2,1.5,0.6,2.7-0.4c1.2-1.1,1.4-1.4,1.4-3.4  c0-2-0.6-2.7,0.7-4.1c1.3-1.4,1.7-2.6,1.7-3.5c0-0.9-0.2-1.6-0.9-2.1c-0.7-0.4-1.1-4.1,0.3-4.5c1.3-0.4,7.2-1.7,8.9-4.6  c1.7-2.9,2.4-2.1,2.4-0.9c0,1.2-0.9,2.1,0.8,2.8c1.7,0.7,1.5,0.3,1.8-1.6c0.3-1.9,2.1-0.7,2.8,0.6c0.7,1.3,1,1.8,3.9,1.8  c2.9,0,5-0.6,5.8-2.4c0.8-1.8,0.6-2.3,1.8-4.6c1.2-2.3,2.5-5.6,2.5-7.5s-0.6-3.5,0.8-4.6c1.4-1.2,2.2-2.9,2.9-2.2  c0.6,0.6,3.7,1.7,4,3.1C422,269,424,268.3,423.5,266.8z" stroke-miterlimit="10" stroke="#FFFFFF"/>
<path name="柳州地区" fill="#D3D3D3" id="path3" d="M596.4,246.6c-2.1,0-6.7-1.2-6.4-3.3c0.3-2.1,0.5-3.7-1.1-4.3  c-1.1-0.4-1.6-2.1-1.6-3.3c-2.1,0.6-6.8,1.7-7.6,0c-1-2.2-2.2-3.2-3.9-3.4c-1.7-0.2-4.8-3.6-4.8-5.6c0-2,1.7-4.6,0.3-4.6  c-1.4,0-5.4,1.2-6.1-1.4c-0.7-2.6,0.2-4.4,1.9-6.3c1.7-1.9,2.9-7,0.3-8.5c-2.5-1.5-4.8-1.5-5.1-4.3c-0.3-2.7-1.2-4.8-3.4-3.6  c-2.2,1.2-6.4,1.9-8.7-0.9c-2.2-2.7-3.6-3.7-3.7-5.9c-0.2-2.2-2.7,0-3.9-3.1s-3.9-5.4-5.1-4.4c-1.2,1-1.9,2.9-4.8,2.4  c-2.9-0.5-7.8-2.2-10.5-1.5c-2.7,0.7-3.2,0.2-3.2-2.5c0-2.7,1.7-4.6,0-7.1c-1.7-2.5-1-6-0.3-6.8c0.7-0.8,4.1-5.4,2.7-8.8  c-1.4-3.4-0.3-6.8,1.7-8.5c2-1.7,5.8-6.5,5.9-10.7c0.2-4.3,0-10.5,0.3-13.3c0.3-2.7,3.1-9,1.2-11.6c-1.9-2.6-2.5-3.6-1.2-6.1  c1.4-2.6,6.1-13.4,2.5-16.2c-3.6-2.7-6.2-7.5-4.4-9.1c1.4-1.2,3.5-3.5,4.4-4.5c-0.7-0.1-1.3-0.2-1.7-0.4c-1.5-0.6-2.6-0.3-4.8,0.1  c-2.2,0.4-3.1,0.8-3.7-1.3c-0.7-2.1,1.9-5.1,5.1-8c3.2-3-3.6-3.4-6.7-5.3c-3.1-1.9-4.7,0.8-5.1,1.4c-0.3,0.7-6.6,2.8-8,1.9  s-2.8-1.4-2.8,0c0,1.4-1.1,1.2-2.9,2.5c-1.8,1.3-1.3,3.2-0.1,4.5c1.2,1.3-4.8,7.5-6.2,8.8c-1.3,1.3-2.5,3.5-3.1,5.6  c-0.6,2.1,0.7,3.6,1.2,5.5c0.5,1.9-7.4,1-10.3,1c-3,0-1.7-3.9-3.6-5c-2-1.1-0.9,2.1-2.2,3.6c-1.3,1.5-3.6-1.7-3.6-3.3  c0-1.7-0.5-2.8-1.3-1.4c-0.8,1.3-2.6,2.3-4.5,2.6c-1.9,0.3-3.9,1.3-4.5,2.3s-3.4,3.3-5,4.3c-1.5,1,0,2.1,2.3,2.5  c2.3,0.4,2.8-1.2,3.1-2.2c0.3-1,2.5-1.1,3.4-1.9c0.9-0.8,2.1-0.9,3.2,0.1c1.1,1-2.6,6-3,8.1c-0.3,2.1,0.2,7.5,2.4,9  c2.2,1.5-1.4,3-2.8,4c-1.3,1-3.1-0.7-4.1-2.5c-1-1.9-2-1.8-3.9-1.7c-1.9,0.1-1.9,0-3.4-1.2c-1.5-1.2-2.5,0.9-4.7,2.1  c-2.2,1.2-2.8-5.3-2.8-6.9c0-1.7,0.7-2.4-3.1-2.9c-3.7-0.4-4.3,1.5-5.8,3c-1.5,1.4,0.3,4.6,1.9,6.3c1.5,1.7-1,1.9-2.5,1.4  c-1.5-0.4-1.9,0-1.9,1.4c0,1.4-0.9,2.3-2.5,3.3c-1.7,1,1.4,4.9,3,8.5c1.3,3-0.6,4.1-2.6,4.1c-0.1,1-0.1,2.2,0.3,2.6  c0.6,0.6,2.2,1.7,2.3,4c0.1,2.3,1.1,5.4,2.5,6.6c1.5,1.2,2.5,1.4,2.5,3.7c0,2.3-0.3,5.5,2.3,6.1c2.6,0.6,6.6,1.5,7.3-0.5  s0.6-4.8,2.2-3.4s3.4-0.4,4.5,1.1c1.2,1.5,3.2,2.4,4.3,1.1c1.2-1.4,1.8-3.6,4.3-1.5c2.5,2.1,5.6,0.6,5.2,5.2  c-0.4,4.6-0.1,7.4-3.2,9.5c-3.1,2.1-6,8.6-3.8,8.6c2.2,0,5.1,0.3,6.3-0.5c1.3-0.8,2.7-2.2,3.1-0.7c0.3,1.5-0.1,3.8,1.4,3.9  c1.5,0.1-1.1,3.8-0.2,4.4c0.8,0.6,2.9,2.6,2,4.3l0,0.4c0.8,0.9,2,1.1,2.5,0.7c0.5-0.4,2.2-1.6,3.8,1.2c1.6,2.8,5.2,6,7.1,5.1  c1.8-0.9,6-4,7.2-2.7c1.3,1.4,2.1,2,3.7,1.6c1.6-0.5,5-2.4,6.5-1.7c1.6,0.7,2.3,1.5,1,3.1c-1.3,1.7-1.6,4.7-2.8,6.7  c-1.2,2,0.5,4.1,1.2,4.7c0.6,0.6,1.7-1,3.2-2.1c1.6-1.1,1.4-0.1,2.4,1.4c1,1.5,3,6.1,2.5,7.4c-0.6,1.3-0.6,3.3-0.1,4.4s0,3-0.9,3.9  c-0.9,0.9-5.2,1.2-4.3,2.3c0.9,1.2,1.7,1.3-0.2,3.8c-2,2.5-0.9,5.6-1.3,6.5s-0.7,5,0.3,6.6c1,1.6,6.2,5,7.5,5.4  c1.3,0.5,1.6-0.9,1.6-2.2c0-1.3,0.9-0.9,2.3-1.4c1.4-0.5,2-1.4,4.4-1.4c2.4,0,8.4,1,6.2,3.6c-2.2,2.5-3.3,4.9-2.9,5.9  c0.5,1-1.6,1.6-2.7,2.3c-1,0.7-6.9,5.8-9.2,6.2c-2.3,0.5-7.2,0.8-7.4,3.4c-0.2,2.5,0.8,6.1-0.3,7.5c-1.2,1.4-3.8,1.6-4,3.9  c-0.2,2.3-1.7,4.6-3.9,4.3c-2.2-0.3-4.2-0.5-4.5-2.9c-0.3-2.4-5-3.5-5.1-7.1c-0.1-3.6,0-7.1-1.4-7.1c-1.4,0-3.1-1.2-4.5,1  c-1.4,2.2-2.4,4.4-3.7,4.1c-1.3-0.3-1.7-1.3-3,0.5c-1.3,1.7-3.3,1.4-3.5-0.1c-0.1-1.5,1-4.6-0.7-4.7c-1.7-0.1-6.7-2.9-9.6-5.4  c-2.9-2.5-1.4-5.6-2.8-6.5c-1.4-0.9-1.8-3.1-1.7-4.6c0.1-1.5,0.2-2.1-0.2-3.4c-0.2-0.6-0.4-1-0.4-1.4c-0.6,0.1-3.1,0.5-3.9-0.3  c-1-1-1.8-4.8-2-6.1c-0.2-1.2-0.7-1.7-2.2-1c-1.5,0.7-3.4,0-4.7-1.2c-1.3-1.2-1.1,1.6-0.8,3.5c0.3,1.8-2.8,2.5-4.3,2.8  c-1.5,0.3-0.2,1.3,0.3,2.4c0.5,1.1-1.4,5.1-2.4,6.2c-1,1.2-1.5,3.7-1.6,4.7c-0.2,1-1.6,2.5-3.6,2.4c-2-0.2-3,2.9-2.9,4.4  c0.1,1.5,0.2,5.1-1,7.1c-1.3,2.1-3.6-1.3-5-1.8c-1.4-0.6-3,0.5-2.5,2.3c0.5,1.5-1.5,2.2-2.1,2.4c0,0.2,0,0.4,0,0.6  c-0.6,1.7-2.1,2.9-0.7,4.6c1.3,1.7,2.2,4.6,1,6.7c-1.2,2.1-1.7,2.8-0.7,4.5c1,1.7,2.4,4.2,2.8,7c0.4,2.8,1.1,3.9,2.8,5.1  c1.7,1.2,2.2,0.7,5.3-1.7c3-2.4,7.3-4.7,8.8-6.2c1.5-1.5,3.8-3.1,5.4-2.2c1.6,0.9,5.2,7.3,5.2,8.7c0,1.3,0.3,2.2-0.8,4.2  c-1.1,2-0.4,4.1,0.4,5.8c0.7,1.7,2.5,5.5,2.9,7.8s0.6,6.4,2.7,8.2c2.1,1.8,5.2,2.4,6,5.3c0.8,2.9,0.9,6.1,3,5.3  c2.1-0.8,2.6-0.8,4,0.7c1.4,1.5,2.4,2.1,4.1,2.2c1.7,0.1,3,0.7,4.1,1.8c1.1,1.1,2.2,2.7,3.6,2.7c1,0,2.2-1.5,2.6-2.1  c-0.3-1.2,0.1-4,2.2-4c2.3-0.1,3.5-1.6,6.3-5c2.8-3.4,5.3-0.7,7.4,1.3c2.1,2,6.1,0.8,7.6-0.2c1.5-1,2.8,3.2,4.7,4.6  c2,1.4,4.8-0.2,5.6-2c0.7-1.8,3.3-4.3,3.3-4.3s4.2-3,5.5-2.5c1.3,0.5,2.4-0.2,3.7-2.2c1.3-1.9,4.7-2.2,6.2-3.5  c1.6-1.3,5.4-1.7,6.1-0.4c0.7,1.3,1.2,0.7,2.6-1c1.4-1.7,4-8.3,4-11.5s0.5-7.8,2.4-9c1.9-1.2,3.2-4,4.2-6.1c1-2.2,2.9-4.1,5-5.3  c2.2-1.2,3.8-3.1,5.3-4.2c1.4-1.1,2.3-0.8,3.6-0.1c1.3,0.7,2.6-0.7,3.4-2.9c0.7-2.2,0.7-5.3,3-2.3c2.3,3,4.4-0.6,5.2,1.4  c0.7,2,1.6,2.8,1.8,0.8c0.2-1.9,1.9-3,0.7-5.2c-1.2-2.2-1.8-5.6-0.4-7.7c1.1-1.5,4.8-4.3,6.9-5c-0.4-0.6-1.4-2.2-2.6-3.1  c-1.5-1.1-0.1-2.3,2.3-3.8c2.5-1.5,3.6-5.1,5.5-5.6C597.3,248.6,598.4,246.6,596.4,246.6z" stroke-miterlimit="10" stroke="#FFFFFF"/>
<path name="南宁地区" fill="#D3D3D3" id="path4" d="M481.1,340c-1.3,0-2.5-1.6-3.6-2.7c-1.1-1.1-2.4-1.7-4.1-1.8  c-1.7-0.1-2.7-0.7-4.1-2.2c-1.4-1.5-1.9-1.5-4-0.7c-2.1,0.8-2.2-2.4-3-5.3c-0.8-2.9-3.9-3.5-6-5.3c-2-1.8-2.2-6-2.7-8.2  s-2.2-6.1-2.9-7.8c-0.7-1.7-1.4-3.8-0.4-5.8c1.1-2,0.8-2.9,0.8-4.2c0-1.3-3.6-7.8-5.2-8.7c-1.6-0.9-3.9,0.7-5.4,2.2  c-1.5,1.5-5.8,3.8-8.8,6.2c-3,2.4-3.6,2.9-5.3,1.7c-1.7-1.2-2.4-2.3-2.8-5.1c-0.4-2.8-1.8-5.3-2.8-7c-1-1.7-0.5-2.4,0.7-4.5  c1.2-2.1,0.4-5-1-6.7c-1.3-1.7,0.1-2.9,0.7-4.6c0.6-1.7-3.3-3-3.9-3.7c-0.6-0.6-1.4,1.1-2.9,2.2c-1.4,1.2-0.8,2.8-0.8,4.6  s-1.3,5.2-2.5,7.5c-1.2,2.3-1,2.9-1.8,4.6c-0.8,1.8-2.9,2.4-5.8,2.4c-2.9,0-3.2-0.4-3.9-1.8c-0.7-1.3-2.5-2.5-2.8-0.6  c-0.3,1.9-0.1,2.3-1.8,1.6c-1.7-0.7-0.8-1.6-0.8-2.8c0-1.2-0.7-2-2.4,0.9c-1.7,2.9-7.6,4.2-8.9,4.6c-1.3,0.4-1,4-0.3,4.5  c0.7,0.4,0.9,1.2,0.9,2.1c0,0.9-0.4,2.1-1.7,3.5c-1.3,1.4-0.7,2.1-0.7,4.1c0,2-0.3,2.3-1.4,3.4c-1.2,1.1-1.9,1.6-2.7,0.4  c-0.8-1.2-3.8,0.1-5.4,0.1s-2.8,0.6-3.9,1.4c-1.2,0.8-3.4,1.1-4.7,0.6c-1.3-0.4-2.3,0.3-4.1,1.3c-1.8,1.1-2.9-0.6-4.3-2.5  c-1.4-1.9-2.1,2.5-1.3,5.5c0.8,3,2.9,8.7,3.6,10.7s2.2,2.7,4.1,2.9c1.9,0.2,5.8-2.8,6.9-3.3c1.1-0.5,2.4-2.8,3.2-2.2  c0.8,0.5,4.4,1.2,5.7,2.7c1.3,1.4,5.3,2.8,7.3,3.7c2.1,0.9,2.9,0.5,2.9-1.6s-1.6-2.7-1.5-3.7c0.1-1,4.9,1.5,7.5,1.2  c2.6-0.3,2.4-2.9,2.8-4.4s2.1-1.6,3.5-0.4c1.3,1.3,5-0.5,6.9-1.7c1.9-1.2,3.6-1.9,5-0.7c1.4,1.2,2.7,0.9,4.5,1  c1.8,0.1,1.6,0.9,2.3,2.5c0.7,1.6,4.8,2.1,6.3,3.3c1.5,1.3,0.8,3-0.3,4c-1.1,1,1.7,4.1,5.5,6.9c3.8,2.8,4.9,10.4,5.1,12.1  s-1.2,5-1.7,5.7c-0.4,0.7-1.9,1.7-2.4,4.6s4.9,2.4,8.6,1.9c3.7-0.5,5.1,2.3,5.5,4.6c0.4,2.2,2.4,2,4.1,2.7c1.7,0.7,2.2,2.7,2,4.3  c-0.2,1.6,1.8,1.9,3.2,2.3c1.4,0.4,0.4,5.3-0.1,6c-0.4,0.7-1.2,3.1-0.5,4.9c0.7,1.8,1.1,3.8,1.6,6.8c0.5,2.9,0.7,7.1-0.9,9.2  s-1.7,3.1,0.4,6.2c1.7,2.5,1.8,6.7,1.8,8c0.2,0.1,0.4,0.2,0.5,0.4c1.1,2.5,1.3,2.2,3.6,2.1c2.3-0.1,3.6-0.7,4.6-2.1  c1-1.4,1.5,0.4,2,1.1c0.4,0.7,2.1,1.3,4.8,0c2.7-1.3,4.9,0.8,7.4,0.5c2.5-0.2,3.5-2.1,5.3-0.5c1.9,1.5,2.5,0.4,4.1,0.4s4,1,4.1-0.5  c0.1-1.5,1.3-9,4.9-10.4c3.6-1.4,3.4-1.5,5.2-0.2c1.9,1.3,3.6,1.2,4.9-0.5c1.3-1.7,3.8-2.2,5.1-1.3s3.4,0.1,4.4-1.1  c0.7-0.9,2.7-1.1,4.8-0.7c-0.3-0.8-0.9-2.6-1.9-5.7c-1.5-4.3-5.4-4.5-6.9-4.6c-1.5-0.1-1.2-2-0.6-3.5c0.7-1.5-0.1-3.8-2.9-4.2  c-2.8-0.4-2.8-1.3-3.3-4.6c-0.6-3.3-1.1-2.3-7.4-5.2c-6.3-2.9-3.9-8.1-2.2-10.6c1.7-2.5-7.3-6.5-8.5-8.3c-1.1-1.8-0.1-7.4,0.1-10  c0.2-2.5-3.9-5.5-4.6-6.2c-0.1-0.1-0.2-0.2-0.2-0.4C483.3,338.5,482.1,340,481.1,340z" stroke-miterlimit="10" stroke="#FFFFFF"/>
<path name="桂林市" fill="#D3D3D3" id="path5" d="M674.7,72.3c-4.1,0-3.6,0.7-4.7,1.8c-1.1,1.1-1.1,2.5-3.2,1.3  c-2.1-1.2-2.8-1.2-2.8-3.3s-0.8-2.3-2.6-4.3c-1.9-2,1.3-10.6,3.4-12.8c2.1-2.2,1.5-9.9,1.7-12.6c0.1-2.6-0.1-2.5,2.2-5  c2.3-2.4-1.9-2.9-4.3-2.4c-2.4,0.4-3.4-0.7-5.1-2.4c-1.7-1.8-5.1-2.4-6.4-1.3c-1.3,1.1-2.3,0.9-7.8-0.8c-5.5-1.7-5.8-4-7-5.2  c-1.2-1.2-1.7,0.9-1.7,2.2c0,1.3-0.5,2.6-1.4,3.2c-0.9,0.6,0.5,3.9,0.5,5.6s-1.1,1.1-2.4-0.2c-1.3-1.3-1.8-0.4-3.5,0.4  c-1.8,0.9-5.9,0.7-7.5,0.9c-1.5,0.2-6.3,0.2-4-2.4c2.3-2.6-2.5-2.8-4.8-2.1c-2.3,0.7-5.3-0.6-7.3-0.6s-1.5,1-1.5,3.1  c0,2.1-2.5,2.4-3.7,3c-1.2,0.6-1.9,5.3-2.1,6c-0.2,0.7-1.7,4.1-4,2.8c-2.3-1.3-5,3.6-6.4,5.3c-1.4,1.7-4.1,5.1-5.2,8.3  c-1.1,3.2-4.8,7.1-7,7.9c-2.2,0.9-1.2-3.2,0.1-5c1.3-1.8-0.8-2.5-2-3.1c-1.2-0.6-3.4-2.4-5.1-2.4s-1.3,2.6-2.5,4.9s-1.7,0.9-3.3-0.1  c-1.7-1-2.8,0-4.4-0.4c-1.7-0.4,0.2-4.3,0.8-6.4c0.5-2.1,0.9-3.2-0.1-4c-1-0.8-0.8-2.5-0.8-3.3c0-0.8-1.4-1.4-3.5-0.1  c-2.1,1.3-2.9,0.8-5.5-0.9c-2.6-1.7-5.1,1.5-6.8,3.5c-1.8,2-0.8,4.3-1,8.6c-0.2,4.3-5.1,3.6-7.8,3.4c-2.8-0.2-2,4.2,0.1,6.7  c2.1,2.5,1.8,5.3,1.3,7.6c-0.3,1.6-2,1.9-3.5,1.7c-0.9,1-3,3.4-4.4,4.5c-1.8,1.5,0.8,6.3,4.4,9.1c3.6,2.7-1.2,13.6-2.5,16.2  c-1.4,2.6-0.7,3.6,1.2,6.1c1.9,2.6-0.8,8.8-1.2,11.6c-0.3,2.7-0.2,9-0.3,13.3c-0.2,4.2-3.9,9-5.9,10.7c-2,1.7-3.1,5.1-1.7,8.5  c1.4,3.4-2,8-2.7,8.8c-0.7,0.9-1.4,4.3,0.3,6.8c1.7,2.6,0,4.4,0,7.1c0,2.7,0.5,3.2,3.2,2.5c2.7-0.7,7.6,1,10.5,1.5  c2.9,0.5,3.6-1.4,4.8-2.4c1.2-1,3.9,1.4,5.1,4.4s3.7,0.9,3.9,3.1c0.2,2.2,1.5,3.2,3.7,5.9c2.2,2.7,6.4,2,8.7,0.9  c2.2-1.2,3.1,0.9,3.4,3.6c0.3,2.7,2.5,2.7,5.1,4.3c2.5,1.5,1.4,6.6-0.3,8.5c-1.7,1.9-2.5,3.7-1.9,6.3c0.7,2.5,4.8,1.4,6.1,1.4  c1.4,0-0.3,2.5-0.3,4.6c0,2,3.1,5.4,4.8,5.6c1.7,0.2,2.9,1.2,3.9,3.4c0.8,1.7,5.5,0.6,7.6,0c0-0.6,0.2-1,0.5-1.1  c1-0.1,4.1-0.3,5.2-1.8c1.1-1.5,1.6-2.9,3.8-2.5s3.3,0.8,4.8-1.1c1.5-1.9,2.1-1.6,3.2-0.7c1.1,1,0.8,1.2,2.2-0.5  c1.4-1.8,1.5-2.2,2.6-1.1c1.1,1.1,1.4,1.4,2.9,1c1.3-0.3,2.6,0,2.7,1.8c1.5,1.2,4.6,2.5,6.3,1.9c1.9-0.7,2,0.3,4.8,0.3  c2.8,0,2-2,2.5-4.9c0.6-2.9,3.6-2.5,4.9-1.3s0.2,7.7-0.7,9.3c-0.9,1.6-1.5,1.9,0.8,3.4c2.3,1.6,5.2-3.4,5.2-6.2c0-2.8,2-2.1,3.4-0.6  c1.4,1.6,0.8,1.6,4.8,0.9c4-0.7,0.6-4.1-1-5.8c-1.5-1.7,1.1-6.2,2.3-10.4c1.2-4.2-3.5-8.5-3.5-13.5c0-5,6.1-9.6,11.5-13.1  c5.4-3.4,3.4-7.2,3.4-10.2c0-3-0.1-5.9-2.4-6.9c-1.7-0.7-3.5-2.5-4.3-3.5c-1.4,1-3.5,1.4-5.8,1.4c-3.6,0-3.1-3.7-2.4-5.4  c0.7-1.7,1.9-2.9,0.9-3.2c-1-0.3-3.3,1.8-3.3,1.8s-2.5-2-1.7-5.1c0.9-3.1,1.1-3.3,2-7.4c0.9-4.1,6.8-7.7,9.8-8.9  c3-1.2,1.9-5.1,1.9-6.3c0-1.2-0.6-2.9,1.9-4c2.4-1.1,1.7-2.4,2.4-4.7c0.8-2.3,4.3-2.8,8-5c3.7-2.2,3.3-5.2,3.5-6.6  c0.2-1.4,1.5-1.8,2.6-7.1c1.1-5.3-0.3-9.4-1.5-10.7c-1.2-1.3-1.9-2.2-0.8-4.3c1.1-2.1,0.8-2.6,0.2-4.3c-0.5-1.7-0.1-1.8,1.9-1.8  s5.1-0.4,8.5-1.7c3.4-1.2-0.2-6.2-1-8.2c-0.8-2,5.6-0.7,6.6-2.9C687.8,72.9,678.7,72.3,674.7,72.3z" stroke-miterlimit="10" stroke="#FFFFFF"/>
<path name="贺州市" fill="#D3D3D3" id="path6" d="M738.9,215.4c-1.9-2-0.3-8.3-0.3-10.3c0-2-3.6-2.6-5-3.5  c-1.3-0.9-2.6-2.5-1.4-4.5c1.2-2,1-3.7,1.2-6.3c0.2-2.5,0.9-2.9,4.8-4.5c4-1.7-2.2-2-3.5-2.5c-1.3-0.6-4-0.3-6.3-0.2  c-2.3,0.1-7.7-0.1-8.6-0.8c-0.9-0.7-1.8-1.2-2.8-0.2c-1,1-2.5,0.6-3.7,0.4c-1.2-0.1-3.1,0.3-5.2,1.2c-2.1,0.9-2.1,3.3-1.7,6.1  c0.4,2.8-1.8,2.4-3.4,1.9s-2.6-0.3-3.1,1.8c-0.4,2.1-1.8,2.6-4.4,3.2c-2.6,0.6-4-1-5.8-2.8c-1.9-1.8-3.7,0.3-4.1-0.8  c-0.3-1.1,1.4-3.9,3.6-7.4c2.2-3.5-0.2-6.5-1.5-7.8c-1.3-1.3-0.9-5.1-1.1-7.2s-2.3-4.4,0.4-8.1c2.8-3.6-0.4-4.6-2.8-5.6  c-2.3-1-1.9-2.8-0.1-5.2c1.8-2.4-1.9-2.2-2.6-3.1c-0.8-0.9-1.9-1.7-2.4-0.4c-0.6,1.2-1.9,2.9-5.2,2.9c-3.3,0-4-1.9-4.8-3.4  c-0.9-1.5-2.1-0.1-2.6,2.4c-0.5,2.5-9.2,6.8-11,7.1c-1.8,0.2-1.9,1.8-1.3,3.4c0.5,1.7,0.8,2.9,0.3,5.7c-0.2,1.1-0.7,1.9-1.6,2.5  c0.8,0.9,2.6,2.7,4.3,3.5c2.3,1,2.4,3.9,2.4,6.9c0,3,2,6.8-3.4,10.2c-5.4,3.4-11.5,8.1-11.5,13.1c0,5,4.8,9.3,3.5,13.5  c-1.2,4.2-3.9,8.7-2.3,10.4c1.5,1.7,5,5.1,1,5.8c-4,0.7-3.3,0.7-4.8-0.9c-1.4-1.5-3.4-2.2-3.4,0.6c0,2.8-2.9,7.7-5.2,6.2  c-2.3-1.5-1.7-1.9-0.8-3.4c0.9-1.5,1.9-8.1,0.7-9.3s-4.3-1.6-4.9,1.3c-0.6,2.9,0.2,4.9-2.5,4.9c-2.8,0-2.9-1-4.8-0.3  c-1.7,0.6-4.9-0.7-6.3-1.9c0,0.3,0,0.7-0.1,1.1c-0.4,2.7,1,9.9,4.9,12.4s4.7,4.1,4.5,8c-0.1,3.8-1.8,6-0.1,8.2  c1.6,2.2,1.4,3,1.8,5.4c0.4,2.3-0.3,4.5,1.6,6.2c1.9,1.6,5.4,4.4,4.4,7.1c-1,2.7-1.1,4.4,1.6,4.4c2.7,0,4,1.2,4.9,5.1  c1,3.8,1.1,7.4,3,10c1.9,2.6,2.1,3.3,2.5,0c0.4-3.3,1.4-7.1,3.7-8.7c2.3-1.5,3.3-3.7,4.8-5.2c1.5-1.5,2.1-2.8,2.9-4.4  c0.8-1.6,4-4.7,5.9-6.7c1.9-2.1,4-3.3,5.9-0.4c1.9,2.9,3.3,4.3,6.4,5.2c3.2,1,7.3,1.5,9.3-3.2c2.1-4.7,2.2-6.9,1.1-9.8  c-1.1-2.9-0.8-5.4,0.4-6.3c1.2-1,3-0.8,4.4-1.4c1.4-0.5,2.3-4.1,2.9-6.9c0.5-2.7-0.1-3.6,2.6-2.5c2.7,1.1,5.6,1.2,6.3,3.4  c0.7,2.2,0.7,4.5-0.7,5.8c-1.4,1.2-1.6,4.3,0,6.2c1.6,1.9,6.6,7,6.7,9.9c0.1,2.9-0.5,4.7,0,5.8c0.3,0.7,0.7,1.6,0.8,2.1  c0.5-0.1,1-0.3,1.5-1.1c1.5-2.2,3.6-0.3,8.6,1.3c5,1.7,6.6-3.6,6.7-5.8c0.1-2.2,1.4-3.2,2.8-4.3c1.3-1.1,1-1.3,1-2.6  c0-1.3,2-1.3,5.3-2.8c3.3-1.4,0.3-5.5-1.1-8.2c-1.4-2.6-3-4.5-2.6-7.3c0.3-2.8-1.3-2.9-1.7-5.6c-0.3-2.8,0.1-3.5,1.8-4.7  c1.7-1.2,2.9-3.1,4.1-4.5c1.2-1.4,5.2-1.4,6.4-2.5c1.2-1.1,3.9-3.7,3.9-7.9C744.3,220.3,740.8,217.4,738.9,215.4z" stroke-miterlimit="10" stroke="#FFFFFF"/>
<path name="梧州市" fill="#D3D3D3" id="path7" d="M707,272.7c-0.1-2.9-5.1-8-6.7-9.9c-1.6-1.9-1.4-4.9,0-6.2  c1.4-1.2,1.4-3.6,0.7-5.8c-0.7-2.2-3.6-2.3-6.3-3.4c-2.7-1.1-2.1-0.3-2.6,2.5c-0.5,2.7-1.5,6.3-2.9,6.9c-1.4,0.5-3.2,0.4-4.4,1.4  c-1.2,1-1.5,3.4-0.4,6.3c1.1,2.9,1,5.1-1.1,9.8c-2.1,4.7-6.2,4.1-9.3,3.2c-3.2-1-4.5-2.3-6.4-5.2c-1.9-2.9-4-1.6-5.9,0.4  c-1.9,2.1-5.1,5.1-5.9,6.7c-0.8,1.6-1.4,2.9-2.9,4.4c-1.5,1.5-2.5,3.7-4.8,5.2c-2.3,1.5-3.3,5.4-3.7,8.7c-0.4,3.3-0.5,2.6-2.5,0  c-1.9-2.6-2.1-6.2-3-10c-1-3.8-2.2-5.1-4.9-5.1c-2.7,0-2.6-1.6-1.6-4.4c1-2.7-2.5-5.5-4.4-7.1c-1.9-1.6-1.2-3.8-1.6-6.2  c-0.4-2.3-0.1-3.2-1.8-5.4c-1.6-2.2,0-4.4,0.1-8.2c0.1-3.8-0.5-5.5-4.5-8s-5.4-9.6-4.9-12.4c0.4-2.8-1.1-3.3-2.6-2.9  c-1.5,0.4-1.8,0.1-2.9-1c-1.1-1.1-1.2-0.7-2.6,1.1c-1.4,1.8-1.1,1.5-2.2,0.5c-1.1-1-1.6-1.2-3.2,0.7c-1.5,1.9-2.6,1.5-4.8,1.1  s-2.7,1-3.8,2.5c-1.1,1.5-4.3,1.6-5.2,1.8c-1,0.1-0.5,3.8,1.1,4.4c1.6,0.5,1.4,2.2,1.1,4.3c-0.3,2.1,4.4,3.3,6.4,3.3  c2.1,0,1,2.1-1,2.6c-1.9,0.5-3,4.1-5.5,5.6c-2.5,1.5-3.8,2.7-2.3,3.8c1.2,0.9,2.2,2.5,2.6,3.1c0.8-0.2,1.3-0.2,1.5,0.3  c0.6,1.8-0.1,5-0.8,7.1c-0.7,2-2.3,7.7-1.4,8.8c0.8,1.1,1.7,3.2,3,3c1.3-0.2,4.4-1,5.5,1c1.1,1.9,2.9,5.4,4.4,4.3  c1.6-1.1,4.7-2.8,5.2-1.2c0.5,1.6,0.7,3.2-0.5,5.7c-1.2,2.4-1.4,5.2-1.3,6.6c0.1,1.4-1,2.6,0.4,4c1.3,1.3,3.4,1.8,4,5  c0.6,3.2,0.1,3,1.6,4.2c1.4,1.2,1.6,1.8,1.6,4.2c0,2.4-0.5,4.4-1.6,6.1c-1.1,1.7-2.6,3.2-3.1,5.4c-0.5,2.2-0.8,6,3.1,7.5  c4,1.4,5.8-0.4,5.9,3.4s0.4,6-3.1,6.5c-3.5,0.5-6.5,1.2-7.2,4.9c-0.7,3.7,0.4,6.5,3,6.7c2.6,0.2,9.2-2.2,9.4-0.4  c0.1,1.8,0.6,5.4,3.2,5.4c2.6,0,4.1-0.8,3.7,3.2c-0.4,4.1,0.7,5.4-1,7.8c-1.7,2.4-0.1,7.6,1.9,8.3c2,0.7,1.2,1.4,2.5,1.1  s2.8,0.1,2,1.7c-0.7,1.6-2.6,4-1.3,7.3c1.3,3.4,1.4,5,3.2,5c1.8,0,2.8,0.2,3.7,2.2c1,1.9,0.5,5.6,2.6,6.9c1.7,0.9,2.3,1.4,2.4,1.6  c1.3,0,5.1-1.9,5.4-2.5c0.3-0.7,0.5-1.9,2.3-1.1c1.8,0.8,4.3-1,7.5-2.6c3.2-1.7,1.8-4,0.8-4.5c-1-0.6-1.8-1.2-1.3-2.4  c0.4-1.2,7.9-0.3,11.8-1.3c3.9-1,12-12.1,14.9-16c2.9-3.9,1.1-4.3,0.9-5.7c-0.2-1.4,3.1-6.3,5-8.2c1.9-1.9-2.9-4.3-4.1-6.4  c-1.2-2.1-0.9-4.5,0-5.5c0.9-1,1.8-2.5,0.7-3.9c-1.1-1.3-1-5.3-2-7.2c-1-1.9-1.7-3.5-0.9-4.2c0.8-0.7,1.2-2.9,0.7-4.3  c-0.6-1.4-0.1-2.8,0.4-4.3c0.6-1.5,1-4.9,1.1-6.6c0.1-1.8,4.6-4.2,7.4-6.8c2.8-2.6,2.5-7.6,2.8-10.1c0.2-2.5,4.1-1.8,7.2-2.5  c3.1-0.8,5-4.7,6.2-7.4c1.2-2.6,0-2.1-3.2-0.9c-3.2,1.2-2.6-1.5-0.4-3.9c2.2-2.3,0.8-3.3,0.5-5.3c-0.1-1.3,0.7-0.8,1.7-1  c-0.2-0.6-0.5-1.5-0.8-2.1C706.4,277.4,707.1,275.6,707,272.7z" stroke-miterlimit="10" stroke="#FFFFFF"/>
<path name="贵港市" fill="#D3D3D3" id="path8" d="M534.1,395.1c2.2-1.2,3.4-3.8,1.9-5c-1.6-1.2-2.6-3.2-2.4-4.3  c0.2-1.1,0.8-2,2.3-2c1.5,0,7.2,0.6,6.9-3.4c-0.4-3.9-0.1-5.8-2-9.1c-2-3.4-2-5.5,0.2-5.1c2.1,0.4,3,1,4.2,0.1  c1.2-0.9,3.4-0.9,5.6-0.2c2.1,0.7,6.3,2.3,7.6,3.2c1.3,0.8,3.8,0.1,4.9-0.5c1.1-0.6,2,0.4,4.4,1.8c2.3,1.4,4.5,2.1,5.9,1  c1.5-1.1,2.1-1.3,3.7-1.1c1.6,0.2,1.6,0.7,3.1,2s4.8,1.9,5.2-0.9c0.4-2.8,0.7-4.7,2.4-7.1c1.7-2.3,1.3-4.1,4.1-4.6  c2.8-0.5,5.1,0.1,7-1.1c1.9-1.2,3.1-2.4,5.1-2.7c1.9-0.3,3.2-1.1,5-1.2c-1.8-0.8-2.5-3.3-1.9-6.4c0.7-3.7,3.7-4.4,7.2-4.9  c3.5-0.5,3.2-2.8,3.1-6.5s-1.9-1.9-5.9-3.4c-4-1.4-3.6-5.3-3.1-7.5c0.5-2.2,2-3.7,3.1-5.4c1.1-1.7,1.6-3.7,1.6-6.1  c0-2.4-0.1-3-1.6-4.2c-1.4-1.2-1-1-1.6-4.2c-0.6-3.2-2.6-3.7-4-5c-1.3-1.3-0.2-2.5-0.4-4c-0.1-1.4,0.1-4.2,1.3-6.6  c1.2-2.4,1-4.1,0.5-5.7c-0.5-1.6-3.6,0.1-5.2,1.2c-1.6,1.1-3.4-2.4-4.4-4.3c-1.1-1.9-4.2-1.2-5.5-1c-1.3,0.2-2.2-1.9-3-3  c-0.8-1.1,0.7-6.7,1.4-8.8c0.7-2,1.4-5.3,0.8-7.1c-0.6-1.8-7,2.6-8.4,4.7c-1.4,2-0.8,5.5,0.4,7.7c1.2,2.2-0.5,3.2-0.7,5.2  c-0.2,1.9-1.1,1.2-1.8-0.8c-0.7-2-2.9,1.6-5.2-1.4c-2.3-3-2.3,0.1-3,2.3c-0.7,2.2-2,3.6-3.4,2.9c-1.3-0.7-2.2-1-3.6,0.1  c-1.4,1.1-3.1,3-5.3,4.2c-2.2,1.2-4.1,3.1-5,5.3c-1,2.2-2.3,4.9-4.2,6.1c-1.9,1.2-2.4,5.8-2.4,9s-2.5,9.9-4,11.5  c-1.4,1.7-1.9,2.3-2.6,1c-0.7-1.3-4.6-1-6.1,0.4c-1.6,1.3-4.9,1.6-6.2,3.5c-1.3,1.9-2.4,2.6-3.7,2.2c-1.3-0.5-5.5,2.5-5.5,2.5  s-2.6,2.5-3.3,4.3c-0.7,1.8-3.6,3.4-5.6,2c-2-1.4-3.3-5.6-4.7-4.6c-1.5,1-5.5,2.2-7.6,0.2c-2.1-2-4.6-4.7-7.4-1.3  c-2.8,3.4-4,4.9-6.3,5c-2.3,0.1-2.6,3.7-2,4.5c0.7,0.7,4.7,3.7,4.6,6.2c-0.2,2.5-1.2,8.2-0.1,10c1.1,1.8,10.1,5.8,8.5,8.3  c-1.7,2.5-4.1,7.7,2.2,10.6c6.3,2.9,6.9,2,7.4,5.2c0.6,3.3,0.6,4.2,3.3,4.6c2.8,0.4,3.5,2.7,2.9,4.2c-0.7,1.5-0.9,3.4,0.6,3.5  c1.5,0.1,5.4,0.3,6.9,4.6c1.1,3.1,1.7,4.9,1.9,5.7c0.8,0.1,1.6,0.3,2.4,0.5c0.6,0.2,1.2,0.3,1.7,0.5  C527.4,400.9,532.1,396.1,534.1,395.1z" stroke-miterlimit="10" stroke="#FFFFFF"/>
<path name="玉林市" fill="#D3D3D3" id="path9" d="M640.3,403.8c-2.2-1.2-1.7-4.9-2.6-6.9c-1-1.9-1.9-2.2-3.7-2.2  c-1.8,0-1.9-1.7-3.2-5c-1.3-3.4,0.6-5.8,1.3-7.3c0.7-1.6-0.7-2-2-1.7s-0.5-0.4-2.5-1.1c-2-0.7-3.6-5.9-1.9-8.3  c1.7-2.4,0.6-3.7,1-7.8c0.4-4.1-1.1-3.2-3.7-3.2c-2.6,0-3.1-3.6-3.2-5.4c-0.1-1.8-6.7,0.6-9.4,0.4c-0.4,0-0.8-0.2-1.1-0.3  c-1.8,0.1-3.1,0.9-5,1.2c-2,0.3-3.3,1.5-5.1,2.7c-1.9,1.2-4.2,0.7-7,1.1c-2.8,0.5-2.4,2.2-4.1,4.6c-1.7,2.3-2,4.3-2.4,7.1  c-0.4,2.8-3.7,2.3-5.2,0.9s-1.5-1.9-3.1-2c-1.6-0.2-2.2,0-3.7,1.1c-1.5,1.1-3.6,0.4-5.9-1c-2.3-1.4-3.3-2.3-4.4-1.8  c-1.1,0.6-3.6,1.3-4.9,0.5c-1.3-0.8-5.5-2.4-7.6-3.2c-2.1-0.7-4.4-0.7-5.6,0.2c-1.2,0.9-2,0.3-4.2-0.1c-2.1-0.4-2.1,1.8-0.2,5.1  c2,3.4,1.7,5.2,2,9.1c0.4,3.9-5.4,3.4-6.9,3.4c-1.5,0-2.1,0.9-2.3,2c-0.2,1.1,0.8,3.1,2.4,4.3c1.6,1.2,0.4,3.8-1.9,5  c-1.9,1.1-6.7,5.8-7.9,7.1c1.8,0.4,2.7,0.6,2.1,1.8c-0.8,1.5-2.3,3.1-0.1,3.1c2.2,0,3.2-0.4,3.3,1.4c0.1,1.9,0.7,5.6,3.7,3.3  c3.1-2.3,3.6-2.8,6.5-1.9c2.9,1,4.3,3.1,2.9,5.1c-1.3,2.1-3.6,4.8-2.9,7.2c0.7,2.4,2,6.2,2,9.3c0,3.1-2.6,7.6-4.4,4.9  c-1.7-2.7-5.9-6.4-7.6-5.2c-1.7,1.2-3.7,2-3.9,3.6c-0.2,1.6-2.4,1.9-3.8,1.4c-1.4-0.4-4,2.2-4,4.5c0,2.3-0.7,6.1-1.2,9.4  c-0.5,3.3-0.5,5.6,1.1,6.4s2,1.5,1.5,3.3c-0.4,1.7,1.1,7.3,1.2,8.5c0.1,1.2,0.7,3.5,0.9,4.9c0.2,1.2,0.4,2.5,0.4,2.9  c0.7,0,1.5-0.1,2.2-0.1c5.2,0,7.2,1.9,5.5,4.2c-1.7,2.3-1.7,7.4-1.7,9.7c0,2.4,0.5,6,2.7,8.1c1.7,1.5,3.8,2.8,4.9,3.4  c0.3-0.6,0.6-0.9,0.9-1c1.3-0.1,3.7,4.2,5.2,3.4c1.4-0.8,4.5-0.9,6.3-1.2c1.8-0.3,1.8-1.3,1.8-3.5c0-2.2,0.3-1.8,1.5-3.7  c1.2-2,0.8-4,0.6-7.2c-0.2-3.2,2.3-5.6,4.7-7.4c2.4-1.8,4.5-0.2,6.5,0.7c2,0.9,4.8-1.8,6.4-3.2c1.5-1.4,6.1,0.2,9,1.1  c3,0.9,5-0.9,6.2-1.5c1.2-0.7,2.8-1.3,4.3-0.2c1.5,1.1,2.1,1.4,4.6,1.2c2.5-0.2,0.6-4.5,0.6-5.8c0-1.3,0.1-1.5-1.3-2.2  c-1.4-0.7-2.3-1-1.8-3.3c0.5-2.3-0.2-2.8-0.7-4.9c-0.4-2.1,0.3-3.4,1.3-5.5c1-2.1-0.1-2.2-1.4-3.4c-1.3-1.2-2.3-2.3-1.8-4  c0.5-1.7,2-1.7,3.3,0c1.3,1.7,3.1-1.4,4.3-2.5c1.2-1.1,6.2,3,8.5,4.5c2.3,1.5,3.5-0.8,4-2.6c0.4-1.9,2,0.3,3.3,0.3s1.7-0.4,1.7,1.8  c0,2.2,3.6,0.3,5.6-1.5c2-1.9,1.1-3,0.1-3.7c-1-0.8-1.7-2.4,0.7-3s3.1-2.4,3.6-4.1c0.5-1.7,1.9-0.4,5.4-0.7c3.5-0.2,0.3-2.2-0.6-2.8  s-1.3-0.8-1.7-3.1c-0.3-2.3-0.8-2.2-2.1-2.6c-1.3-0.4-1.4-3.4-1.2-5.7c0.2-2.3-1-2-2.5-3.5c-1.5-1.5,2.3-0.8,4.6-0.8  c2.3,0,0.5-2.9,1.4-4.2c0.9-1.3,1.8-1.7,0.4-3.4c-1.3-1.8-0.2-1.4,0.5-3.9c0.8-2.4,1.7-1.2,3.2-0.1c1.5,1.1,2.1,1.1,2.3,0  c0.2-1.1,1.3-1,4.2-1s2-1.8,3.3-1.8c0,0,0,0,0,0C642.6,405.2,642,404.7,640.3,403.8z" stroke-miterlimit="10" stroke="#FFFFFF"/>
<path name="防城港市" fill="#D3D3D3" id="path10" d="M406.1,445.2c-0.8,0-2.6-1.4-3.5-3.7c-0.9-2.4-2.7-1.6-4.6-0.8  c-1.9,0.8-2.4,1.1-4.7,0.3s-2.1-3.2-2.2-4.7c-0.1-1.4-1.3-2.3-2.3-2.3c-0.8,0-1.9-0.4-2.5-0.6c-1.3,0.5-2.9,1.3-4.4,3.8  c-2.2,3.8-6.2,5-6.4,7.5c-0.2,2.5-1.8,5.3-4.5,5.3c-2.7,0-5.6-1.6-10.2-0.6c-4.6,1-9.9,3.3-12.3,2.7c-2.3-0.6-4.5-0.5-2.6,3  c1.9,3.5,2,3.6,1.3,4.6c-0.7,1,0.2,1,1.1,1.1c0.9,0.1,1.7,1.7-0.4,3.6c-2.1,1.8-7.9,10.4-8.7,12.3c-0.8,1.8-0.6,5,0.1,7.1  c0.7,2.1,1.3,6.9-2.3,11.2c-3.7,4.3-5.4,5.8-5.8,7.6c-0.3,1.2-0.7,2.5-0.9,3.2c1,1.1,2,2.5,2.6,3.4c1.3,1.8,2.5,0.4,4.6-0.3  c2.1-0.7,2.1,0.7,3.1,2c1,1.3,1.3,0.4,2.9,0.4c1.7,0,11.3-2.8,14.3-4.9c2.9-2.1,5-0.7,7.5-0.8c2.5-0.1,3.9-0.3,7.4,4.8  c3.5,5,6.6,5.5,8.2,5.7c1.7,0.3,4.5,0.3,6.4-0.3c2-0.6,2-0.6,3.9,1.5c2,2.1,3.5,1.3,5.7,0.4c2.2-0.8,0.1-2.2-0.7-4.2s3.9-5.3,5-6.4  c1.1-1.1,0.7,3.9,2.4,4.9c1.7,1-1.3,5.6-2.2,7.3c-1,1.7,1.1,2,1.8,0.8c0.7-1.1,2.2-3.1,3.6-2.9c1.4,0.1,2-1.5,3.4-3.2  c1.4-1.7,1.7-2.9,0.1-2.9c-1.5,0-1.5-0.3,0.1-1.1c1.7-0.8,0.3-2.1,0.1-4.1c-0.1-2-1-2.1,0.3-3.4c1.3-1.3,3.2-1,4.9,0.1  c1.7,1.1,3.2,1.3,3.9,0.3c0.7-1,1.7-1.5,2.9-1.4c1.3,0.1-0.8,0.7-0.7,2.7c0.1,2,2.1-0.8,3.2,0.1c1.1,1-1.7,2.4-3.8,3.9  c-2.1,1.5-0.6,1.3,1.3,1.5c1.8,0.3,1,1.3-0.8,3.1c-1.8,1.8-1.4,0.6-1.5-1c-0.1-1.5-2,1.7-2,2.5c0,0.8,2,0.7,4.1,0.8  c2.1,0.1,2.1,0.1,2-1.5c-0.1-1.7,1.8-2.5,1.8-3.2s1.7-1.3,1.8,1.1c0.1,2.4,0.1,1.3,1.7-0.6c1.5-1.8,2.2-2,1.1-3.2  c-1.1-1.3,0.7-1,2-1.1c1.3-0.1-0.3-1.5,0.4-2.2c0.7-0.7,0.8-1.8,0.8-3.1c0-1.3-3.6,1.5-4.6,2c-1,0.4-1.1-3.2-1.3-5  c-0.1-1.8,0.4-2.1,1.7-1.4c0.9,0.5,0.8,0,1.3-0.5c-0.9-0.7-4.7-3.7-5.4-4.7c-0.8-1.2-0.8-5.2-1.1-7.7c-0.3-2.4,1.4-9-0.2-8.2  c-1.6,0.8-1.4,2.6-3.3,1.2c-1.9-1.3-5.4-0.3-7.9,0.5c-2.5,0.8-7.1,1.7-8.8-1.2c-1.7-2.8-3.8-3.3-3.3-5.2c0.4-1.9,0.3-4-1-5.8  c-1.3-1.7-2-2-1.4-3.7c0.5-1.7,1.4-2.4,0.4-3.9c-1-1.5-0.4-5.2,2.9-6.4c2.8-1,5.5-1.5,6.8-2.7C408.5,447,406.9,445.2,406.1,445.2z" stroke-miterlimit="10" stroke="#FFFFFF"/>
<path name="钦州市" fill="#D3D3D3" id="path11" d="M522.5,468.3c-0.1-1.2-1.6-6.8-1.2-8.5c0.4-1.7,0.1-2.4-1.5-3.3  s-1.6-3.2-1.1-6.4c0.5-3.3,1.2-7.1,1.2-9.4c0-2.3,2.6-4.9,4-4.5c1.4,0.4,3.6,0.2,3.8-1.4c0.2-1.6,2.2-2.4,3.9-3.6  c1.7-1.2,5.9,2.5,7.6,5.2c1.7,2.7,4.4-1.9,4.4-4.9c0-3.1-1.3-6.9-2-9.3c-0.7-2.4,1.6-5.1,2.9-7.2c1.3-2.1,0-4.2-2.9-5.1  c-2.9-1-3.5-0.4-6.5,1.9c-3.1,2.3-3.6-1.4-3.7-3.3c-0.1-1.9-1.1-1.4-3.3-1.4c-2.2,0-0.7-1.5,0.1-3.1c0.8-1.5-0.9-1.4-3.8-2.3  s-6.2-1-7.2,0.2c-1,1.2-3.1,2-4.4,1.1s-3.8-0.4-5.1,1.3c-1.3,1.7-3.1,1.9-4.9,0.5c-1.9-1.3-1.6-1.2-5.2,0.2  c-3.6,1.4-4.8,8.8-4.9,10.4c-0.1,1.5-2.5,0.5-4.1,0.5s-2.3,1.1-4.1-0.4c-1.9-1.5-2.8,0.3-5.3,0.5c-2.5,0.2-4.7-1.9-7.4-0.5  c-2.7,1.3-4.4,0.7-4.8,0c-0.4-0.7-1-2.5-2-1.1c-1,1.4-2.3,2-4.6,2.1c-2.3,0.1-2.5,0.4-3.6-2.1c-1.1-2.5-8.3,4.6-9.6,6.8  c-1.3,2.2-5.2,3.6-7.3,3.6c-2.1,0-3.8,3.1-5.2,3.1c-1.4,0-2.6,3.9-3.6,6.8c-1,2.8-2.1,7.5-5.2,10.5c-3.2,2.9-6-0.4-7.9-1  c-1.9-0.5-7.3,1.7-8.2,3.5c-0.9,1.7-4.1,2.3-7.5,3.5c-3.4,1.2-3.9,4.9-2.9,6.4c1,1.5,0.1,2.2-0.4,3.9c-0.5,1.7,0.1,2,1.4,3.7  c1.3,1.7,1.4,3.9,1,5.8c-0.4,1.9,1.6,2.3,3.3,5.2c1.7,2.8,6.3,2,8.8,1.2c2.5-0.8,6-1.8,7.9-0.5c1.9,1.3,1.7-0.5,3.3-1.2  c1.6-0.8-0.1,5.8,0.2,8.2c0.3,2.4,0.3,6.5,1.1,7.7c0.7,1.1,4.6,4.1,5.4,4.7c0.2-0.2,0.6-0.5,1.2-0.6c2-0.4-0.6-2-2.4-2.2  c-1.8-0.3-1.8-0.8-2-2.8c-0.1-2-0.1-1.7-1.8-1.5c-1.7,0.1-1-0.6-0.8-2c0.1-1.4,0.6-2.1,2-2.9c1.4-0.8,2.5-2.7,3.2-3.6  c0.7-1,1.1-2.7,2.1-0.6c1,2.1,1.3,0.4,2.7,0c1.4-0.4,1.7,1,0.1,3.9c-1.5,2.9,1.8-0.7,1.8-0.7s1.4-1.4,1.7,0.1  c0.3,1.5-0.7,4.1-3.1,6.7c-2.4,2.7-1.8,3.8-0.3,4.1c1.5,0.3,2.4,0.7,2.4,3.2c0,2.5,1,1.4,1.7-0.7c0.7-2.1,0.3-3.6-0.4-4.9  c-0.7-1.3,1.7-1.7,2.1-2.7c0.4-1,1-1.3,1.1,0.3c0.1,1.5,0.8,0,2.1-0.3c1.3-0.3-0.6,2.7-0.6,2.7s-0.4,1-2.1,2.4  c-1.7,1.4,2.9,0.7,5.3,2c2.4,1.3,0.3,5.3,0.4,9.8c0.1,4.5,3.6,2.9,4.8,1.1c1.1-1.8,2.5-2.2,4.3-2.2c1.8,0,2.2-0.4,1.1-1.7  c-1.1-1.3-1.3-1.8-1.3-3.4c0-1.5-1.1-1.1-2.7-1.5c-1.5-0.4,0.7-1.5,0.8-3.1c0.1-1.5,0.8-1.3,1,1c0.1,2.2,2.2,0.7,2.7-1.5  c0.4-2.2,0-3.8-1.5-4.2c-1.5-0.4-1.3-0.3-2-1.4c-0.7-1.1,1-1.7,2.7-1c1.7,0.7,1.3,1.7,2,2.9c0.7,1.3,1.1,0.6,2.4-1  c0.5-0.6,0.7-0.6,0.8-0.3c0.5-0.9,2.4-4.2,2.4-5.5c0-1.5,0.9-2.5,2-3.2c1-0.8,6.8-2.6,9-2.2c2.2,0.5,4.3-1.1,6.2,0.8  c1.9,2,4.1,2.4,6.1-0.2c2.1-2.5,4.2-4,6-3.5c1.8,0.5,5.9-0.6,7.7,0.1c1.8,0.7,4.9-2,7.1,0c2.2,2,5,2.6,6.4,1.8c1.2-0.7,4-1.4,8-1.6  c-0.1-0.4-0.2-1.7-0.4-2.9C523.2,471.8,522.6,469.5,522.5,468.3z" stroke-miterlimit="10" stroke="#FFFFFF"/>
<path name="崇左市" fill="#D3D3D3" id="path12" d="M337.1,495c3.7-4.3,3.1-9.1,2.3-11.2c-0.7-2.1-0.9-5.3-0.1-7.1  c0.8-1.8,6.5-10.4,8.7-12.3c2.1-1.8,1.3-3.5,0.4-3.6c-0.9-0.1-1.8-0.1-1.1-1.1c0.7-1,0.6-1.1-1.3-4.6c-1.9-3.5,0.2-3.6,2.6-3  c2.3,0.6,7.7-1.6,12.3-2.7c4.6-1,7.6,0.6,10.2,0.6c2.7,0,4.3-2.9,4.5-5.3c0.2-2.5,4.2-3.7,6.4-7.5c2.2-3.8,4.7-3.7,6.2-4.5  c1.5-0.8,2.9-1.9,1.5-2.9c-1.3-0.9-0.9-2.5-0.6-3.8c0.3-1.3,0.7-1.5-0.5-2.1c-1.2-0.6-2.1-2.6-4.3-2.6c-2.1,0-3.6-0.1-4.9-1.4  s0.7-3.3,1.9-4.4c1.2-1.1,0.7-1.5-0.9-2.7c-1.6-1.1-0.7-2.3,0.1-3.5c0.8-1.1,6-1.5,7.5-2.3c1.4-0.8,2-6.3,0.6-6.9  c-1.4-0.6-2,0.6-2.9,3.1c-0.8,2.5-2.7,2-4.6-0.3s-1.4-4.4-0.4-6.5c1-2.1,0.1-4.9-1.2-5.1c-1.3-0.2-3-2.3-4-3.9s-2.2-2-4.4-2  c-2.1,0-4.4-1.8-8.4-3s-4.7-3.3-4.1-5.7c0.6-2.5,7.4-2.2,9.7-2.3c2.4-0.1,6.4-3.7,7.6-5.7c1.1-2,2.2-5.4,2.2-6.7c0-1.3,4.2,0,6.2,0  s-1.2-3.4-2.2-4.4s-6.6-6.7-8-9.4c-1.3-2.7-5.9-2.9-8.2-3.8c-2.2-0.9-2.3-5.1-2.3-7c0-1.9-1.8-1.9-3.7-2.3c-1.8-0.4-2.1,0.5-3,2.6  c-0.8,2-2.8,4.4-4.5,4.9c-1.7,0.5-4.6-1-8.3-1.9c-3.7-0.9-4.1,4.7-4.1,8s-5.7,1.3-7.1,1.3c-1.4,0-2.2-0.2-3.2-1.5  c-0.9-1.3-1.5-1.4-5.4-2.3c-3.9-0.9-3.4-5.4-3.4-6.6c0-1.2-0.9-4-3.5-4.8c-2.6-0.8-3.5,1.1-5.5,3c-2,1.8-5.7,0.9-6.4,0.2  c-0.7-0.7-1.8-1.2-2.7,0c-0.8,1.2-4,3.3-7.4,4.5c-3.4,1.2-6.7-0.9-10.8-2.3c-4.1-1.4-5.3,2-6.3,5.5c-1,3.5-9.1,5.4-10.3,6  c-1.2,0.6-3.8,0.7-3.4,1.6c0.4,0.9,0,3.6-0.2,5.4c-0.2,1.8-0.8,4.1,2.1,5.2c3,1.1,0.9,3.7-0.3,5.6c-1.1,1.8-7.8,10.7-8.6,11.8  c0.4,0.4,0.8,1.2,1.6,2.2c1.7,2.2,4.3,3.5,5.3,4.9c1,1.4,2.8,1.5,4.1,2.1c1.3,0.6,1,2.7-0.8,4.2c-1.8,1.5-3.4,2.9-4.5,3.6  c-1.1,0.7-1.7,5.2-2.9,7.3c-1.3,2.1-2.1,3.1-1.7,4.9c0.4,1.8,1.7,2.2,0.4,4.1c-1.3,1.8-6.7-0.6-8-1.5s-3.4-1.7-2.4-0.4  c1,1.3-1.5,2.9-2,6.4c-0.4,3.5-2.5,4.8-2.5,7c0,2.2,1.5,4.1,3.2,5.3c1.7,1.3-0.6,1.7-1.4,3.4c-0.8,1.7,2.7,2.4,6,1.8  c3.4-0.6,3.9,5.7,5.2,7.8s0.8,6,0.8,10.6c0,4.6-0.4,8.1-0.7,10.9s0.4,5.6,1.8,7.7c1.4,2.1,4.1-1.1,5.5-3.4c1.4-2.2,1.1-0.4,2,0.1  c0.8,0.6,2.8,0.6,5.3,0.6s3.9,2.8,7.1,3.9c3.2,1.1,3.2,1.7,6.7,1.3c3.5-0.4,4.2-0.4,5.5,1.4c1.3,1.8-1.7,7.1-4.1,7.3  c-2.4,0.1-2.7,3.8,1.4,3.6c4.1-0.1,6.4,3.4,8.7,4.1c2.2,0.7,6.4,6.7,7.7,7.8c1.3,1.1,5.6-1.8,7-3.1c1.4-1.3,3.4-0.6,4.9,3.4  c1.5,3.9,2,5.7,2,8.3c0,2.5,2.4,2.5,4.1,1.7c1.7-0.8,2.8-5.2,4.3-6.2c0.8-0.5,1.9,0.3,3,1.5c0.2-0.7,0.7-2.1,0.9-3.2  C331.7,500.8,333.5,499.2,337.1,495z" stroke-miterlimit="10" stroke="#FFFFFF"/>
<path name="柳州市" fill="#D3D3D3" id="path13" d="M469.6,187.7c1.1-0.1,1.8,0.6,2.9,2c1.1,1.4,2.7,0.9,3-0.2  c0.4-1.1,1.2-2.4,2-1.3c0.8,1.1,2.2,1.3,2.7,0.9c0.5-0.4,2.2-1.6,3.8,1.2c1.6,2.8,5.2,6,7.1,5.1c1.8-0.9,6-4,7.2-2.7  c1.3,1.4,2.1,2,3.7,1.6c1.6-0.5,5-2.4,6.5-1.7c1.6,0.7,2.3,1.5,1,3.1c-1.3,1.7-1.6,4.7-2.8,6.7c-1.2,2,0.5,4.1,1.2,4.7  c0.6,0.6,1.7-1,3.2-2.1c1.6-1.1,1.4-0.1,2.4,1.4c1,1.5,3,6.1,2.5,7.4c-0.6,1.3-0.6,3.3-0.1,4.4c0.5,1.2,0,3-0.9,3.9  c-0.9,0.9-5.2,1.2-4.3,2.3c0.9,1.2,1.7,1.3-0.2,3.8c-2,2.5-0.9,5.6-1.3,6.5c-0.3,0.9-0.7,5,0.3,6.6c1,1.6,6.2,5,7.5,5.4  c1.3,0.5,1.6-0.9,1.6-2.2c0-1.3,0.9-0.9,2.3-1.4c1.4-0.5,2-1.4,4.4-1.4c2.4,0,8.4,1,6.2,3.6c-2.2,2.5-3.3,4.9-2.9,5.9  c0.5,1-1.6,1.6-2.7,2.3c-1,0.7-6.9,5.8-9.2,6.2c-2.3,0.5-7.2,0.8-7.4,3.4c-0.2,2.5,0.8,6.1-0.3,7.5c-1.2,1.4-3.8,1.6-4,3.9  c-0.2,2.3-1.7,4.6-3.9,4.3c-2.2-0.3-4.2-0.5-4.5-2.9c-0.3-2.4-5-3.5-5.1-7.1c-0.1-3.6,0-7.1-1.4-7.1s-3.1-1.2-4.5,1  c-1.4,2.2-2.4,4.4-3.7,4.1c-1.3-0.3-1.7-1.3-3,0.5c-1.3,1.7-3.3,1.4-3.5-0.1c-0.1-1.5,1-4.6-0.7-4.7c-1.7-0.1-6.7-2.9-9.6-5.4  c-2.9-2.5-1.4-5.6-2.8-6.5c-1.4-0.9-1.8-3.1-1.7-4.6c0.1-1.5,0.2-2.1-0.2-3.4c-0.5-1.3-0.7-1.4,0.1-3.4c0.8-2,0.1-6.7,2.2-6.9  c2.1-0.2,2.4-3,3.5-4.5c1-1.5,2.9-1.2,1.6-3.2c-1.3-2.1-0.7-3-2.3-3c-1.6,0-3.5-1.5-5.5-1.5c-2.1,0-5.2-2.8-5.3-4.6  c-0.1-1.9-0.1-3.5,1.3-3.4s0.5-1.7,1.8-3.4c1.4-1.6,7-3.1,5.8-5.3c-1.3-2.2-4-4.5-1.8-5.6c2.2-1,2.4-3.1,3.1-4.9  c0.7-1.7,1-3.2,2.4-4.2C468.7,188,468.5,187.9,469.6,187.7L469.6,187.7z" stroke-miterlimit="10" stroke="#FFFFFF"/>
<path name="北海市" fill="#D3D3D3" id="path14" d="M532.6,498.1c1.7,1.5,3.8,2.8,4.9,3.4c-0.9,1.8-1.6,5.5-1.1,6.8  c0.7,1.7,2.4,5.3,2.5,7.4c0.1,2.1,1.8,2.8,0.1,3.4c-1.7,0.6-0.7,2.8-2.7,2.4c-2-0.4-8.8-4.5-7.3-5.6c1.5-1.1,1.8-2.8,1.5-4.2  c-0.3-1.4,0.1-5.6-0.8-4.6c-1,1-2.7,1.5-3.1,3.1c-0.4,1.5-1.3,2.1-1.3,0s-3.4-3.1-1.4-4.5c2-1.4,2.1-5,0.8-3.4  c-1.3,1.7-3.1,3.6-3.4,0.6c-0.3-3.1-3.4-3.8-1.3-4.9c2.1-1.1,3.9-3.1,3.8-5c-0.1-2-1.3-2.5-1.3-1.3c0,1.3-0.1,1.7-1.7,0.7  c-1.5-1-5.2,4.3-6.2,5.3c-1,1,4.2,3.6,1.5,3.5c-2.7-0.1-6,0.7-4.1,1.1c2,0.4,5.3,0.7,5.7,3.4c0.4,2.7,0.1,2.9,2,3.2  c1.8,0.3,2.4,1.3,1,2.4c-1.4,1.1-2.1,0.6-1.4,2.2c0.7,1.7,1,3.5-0.7,4.1s-7.1,3.8-7,2.2c0.1-1.5-0.1-1-1.3,0.4  c-1.1,1.4-4.5,2.4-6.3,2.4c-1.8,0-3.6,1.1-4.6-0.6s-1.4-1.5-1.8-0.4c-0.4,1.1-5.3,1.7-6.2,0.4c-0.8-1.3-1.4-4.3-1.5-2.5  c-0.1,1.8-1.7,4.9-3.8,5.2c-2.1,0.3-2.7,0.4-3.2,1.5c-0.6,1.1,0-1.4-4.5-1.8c-4.5-0.4-4.1-3.4-6-2.2c-2,1.1-1-2.5,2.1-3.5  c3.1-1,8.8-2.8,7.7-6.4c-1.1-3.6-1-3.9-4.1-3.8c-3.1,0.1-7.7-1.1-6.3-2.1c1.4-1,1.1-2-0.6-1.5c-1.7,0.4-9.4,2.9-9.4-0.8  c0-3.8-1.8-3.1-3.5-3.8c-1.7-0.7,2-2.4,1.3-3.4c-0.7-1-1.8-1.5,0.4-2.5c2.2-1,4.3-3.2,3.1-3.2c-0.8,0-0.8-1-0.9-1.4  c0.5-0.9,2.4-4.2,2.4-5.5c0-1.5,0.9-2.5,2-3.2c1-0.8,6.8-2.6,9-2.2c2.2,0.5,4.3-1.1,6.2,0.8c1.9,2,4.1,2.4,6.1-0.2  c2.1-2.5,4.2-4,6-3.5c1.8,0.5,5.9-0.6,7.7,0.1c1.8,0.7,4.9-2,7.1,0c2.2,2,5,2.6,6.4,1.8c1.4-0.8,5.1-1.7,10.3-1.7  c5.2,0,7.2,1.9,5.5,4.2c-1.7,2.3-1.7,7.4-1.7,9.7C529.8,492.3,530.3,496,532.6,498.1z M471.1,562.9c0.2,0.5,1.1,0.2,1.6,0  c0.5-0.2,0.7-2.7,0.5-3.7c-0.2-1-2.6-1.5-3.5-1.5c-0.9,0.1-1.6,2.6-1.7,4.3c-0.1,1.7,1.2,1.6,1.8,0.7  C470.5,561.9,470.9,562.5,471.1,562.9L471.1,562.9z M486.4,574.9c0,0,0,0.3,0.6-0.3c0.6-0.6-0.3-1.1-1-0.9  C485.3,574,486.4,574.9,486.4,574.9L486.4,574.9z M480.2,574.8c-0.5,0.1-1.4-0.7-1.9-1.1c-0.5-0.4,1-1,1.9-0.4  C481.1,573.9,480.7,574.7,480.2,574.8L480.2,574.8z" stroke-miterlimit="10" stroke="#FFFFFF"/>
</svg>